# This file uses centimeters as units for non-parametric coordinates.

mtllib MDL piller broken 2.mtl
g default
v -7.271045 2.281822 0.728955
v -6.969101 2.281822 0.000000
v -7.271045 2.281822 -0.728955
v -8.000000 2.281822 -1.030899
v -8.728956 2.281822 -0.728955
v -9.030899 2.281822 0.000000
v -8.728954 2.281822 0.728955
v -8.000000 2.281822 1.030899
v -6.816718 1.845440 1.183282
v -6.542710 1.845438 0.000000
v -6.816718 1.845440 -1.183282
v -8.000000 1.845438 -1.457290
v -9.183281 1.845440 -1.183282
v -9.457291 1.845438 0.000000
v -9.183281 1.845440 1.183282
v -8.000000 1.845438 1.457290
v -6.816718 0.458582 1.183282
v -6.542710 0.458582 -0.000000
v -6.816718 0.458582 -1.183282
v -8.000000 0.458582 -1.457290
v -9.183281 0.458582 -1.183282
v -9.457291 0.458582 0.000000
v -9.183281 0.458582 1.183282
v -8.000000 0.458582 1.457290
v -6.456146 -0.000002 1.525138
v -8.000000 0.000000 1.525141
v -8.000000 0.000000 0.000000
v -9.525137 -0.000002 1.525138
v -9.525141 0.000000 0.000000
v -9.525137 -0.000002 -1.525138
v -8.000000 0.000000 -1.525141
v -6.456146 -0.000002 -1.525138
v -6.456142 0.000000 -0.000000
v -6.456146 0.458582 1.525138
v -6.456142 0.458582 -0.000000
v -6.456146 0.458582 -1.525138
v -8.000000 0.458582 -1.525141
v -9.525137 0.458582 -1.525138
v -9.525141 0.458582 0.000000
v -9.525137 0.458582 1.525138
v -8.000000 0.458582 1.525141
v -7.271045 6.451450 0.728955
v -8.000000 5.839596 1.030899
v -8.728954 5.311697 0.728955
v -9.030899 5.176989 0.000000
v -8.728954 5.514381 -0.728955
v -8.000000 6.126236 -1.030899
v -7.271044 6.654137 -0.728955
v -6.969101 6.788845 0.000000
vt 0.191845 0.077853
vt 0.144243 0.077853
vt 0.144243 0.010200
vt 0.191845 0.010200
vt 0.191845 0.109021
vt 0.144243 0.109021
vt 0.252405 0.077853
vt 0.252405 0.010200
vt 0.191845 0.319337
vt 0.144243 0.319336
vt 0.229753 0.109021
vt 0.229754 0.319336
vt 0.193269 0.078151
vt 0.253822 0.078151
vt 0.253822 0.010489
vt 0.193269 0.010489
vt 0.193269 0.109253
vt 0.229320 0.109252
vt 0.145299 0.078151
vt 0.145299 0.010489
vt 0.712812 0.248002
vt 0.229320 0.268751
vt 0.145299 0.109253
vt 0.760693 0.180501
vt 0.145299 0.253001
vt 0.743348 0.137131
vt 0.658566 0.195191
vt 0.705982 0.123277
vt 0.670740 0.147411
vt 0.368234 0.143615
vt 0.368234 0.217709
vt 0.345955 0.217709
vt 0.345955 0.143615
vt 0.368234 0.069521
vt 0.345955 0.069521
vt 0.368234 0.143615
vt 0.368234 0.217709
vt 0.345955 0.217709
vt 0.345955 0.143615
vt 0.368234 0.069521
vt 0.345955 0.069521
vt 0.565871 0.035698
vt 0.565871 0.110701
vt 0.491777 0.110701
vt 0.565871 0.184795
vt 0.491777 0.035697
vt 0.491777 0.184795
vt 0.417683 0.035698
vt 0.417683 0.184795
vt 0.417683 0.110701
vt 0.516292 0.818676
vt 0.458806 0.831987
vt 0.442198 0.814470
vt 0.516292 0.814470
vt 0.445494 0.889473
vt 0.442198 0.889473
vt 0.573778 0.831988
vt 0.590386 0.814470
vt 0.458806 0.946959
vt 0.442198 0.963567
vt 0.587090 0.889473
vt 0.590386 0.889473
vt 0.516292 0.960271
vt 0.516292 0.963568
vt 0.573778 0.946959
vt 0.590386 0.963567
vt 0.193992 0.077653
vt 0.136885 0.077653
vt 0.136884 0.009965
vt 0.193992 0.009965
vt 0.193992 0.108915
vt 0.154848 0.108915
vt 0.254362 0.077653
vt 0.254362 0.009965
vt 0.193992 0.295254
vt 0.154848 0.320499
vt 0.232047 0.108915
vt 0.232047 0.266423
vt 0.193059 0.082905
vt 0.145883 0.082905
vt 0.145883 0.015264
vt 0.193059 0.015264
vt 0.193059 0.113925
vt 0.145883 0.113925
vt 0.254179 0.082905
vt 0.254179 0.015264
vt 0.193059 0.286343
vt 0.145883 0.260190
vt 0.230246 0.113925
vt 0.230246 0.317066
vt 0.368175 0.143163
vt 0.368175 0.217769
vt 0.346014 0.217769
vt 0.346014 0.143163
vt 0.368175 0.069462
vt 0.346014 0.069462
vt 0.368175 0.144068
vt 0.368175 0.217769
vt 0.346014 0.217769
vt 0.346015 0.144068
vt 0.368175 0.069462
vt 0.346014 0.069462
vt 0.193269 0.253001
vt 0.676163 0.237978
vt 0.748274 0.227239
vn -0.000001 -1.000000 -0.000001
vn -0.000000 -1.000000 0.000000
vn -0.000000 -1.000000 -0.000000
vn 0.000001 -1.000000 -0.000001
vn 0.000000 -1.000000 -0.000000
vn 0.000001 -1.000000 0.000001
vn 0.000000 -1.000000 0.000000
vn -0.000001 -1.000000 0.000001
vn 0.000000 -1.000000 0.000000
vn 0.974221 0.000000 0.225597
vn 0.974221 0.000000 0.225597
vn 0.974221 0.000000 0.225597
vn 0.974221 0.000000 0.225597
vn 0.974221 0.000000 -0.225597
vn 0.974221 0.000000 -0.225597
vn 0.974221 0.000000 -0.225597
vn 0.974221 0.000000 -0.225597
vn 0.225596 0.000000 -0.974221
vn 0.225596 0.000000 -0.974221
vn 0.225596 0.000000 -0.974221
vn 0.225596 0.000000 -0.974221
vn -0.225597 0.000000 -0.974221
vn -0.225597 0.000000 -0.974221
vn -0.225597 0.000000 -0.974221
vn -0.225597 0.000000 -0.974221
vn -0.974221 -0.000000 -0.225598
vn -0.974221 -0.000000 -0.225598
vn -0.974221 -0.000000 -0.225598
vn -0.974221 -0.000000 -0.225598
vn -0.974221 0.000000 0.225598
vn -0.974221 0.000000 0.225598
vn -0.974221 0.000000 0.225598
vn -0.974221 0.000000 0.225598
vn -0.225597 0.000000 0.974221
vn -0.225597 0.000000 0.974221
vn -0.225597 0.000000 0.974221
vn -0.225597 0.000000 0.974221
vn 0.225597 0.000000 0.974221
vn 0.225597 0.000000 0.974221
vn 0.225596 0.000000 0.974221
vn 0.225597 0.000000 0.974221
vn 0.638872 0.744860 0.192423
vn 0.638872 0.744860 0.192423
vn 0.638872 0.744860 0.192423
vn 0.638872 0.744860 0.192423
vn 0.638872 0.744860 -0.192423
vn 0.638872 0.744860 -0.192423
vn 0.638872 0.744860 -0.192423
vn 0.638872 0.744860 -0.192423
vn 0.192423 0.744860 -0.638872
vn 0.192423 0.744860 -0.638872
vn 0.192423 0.744860 -0.638872
vn 0.192423 0.744860 -0.638872
vn -0.192423 0.744860 -0.638872
vn -0.192423 0.744860 -0.638872
vn -0.192423 0.744860 -0.638872
vn -0.192423 0.744860 -0.638872
vn -0.638873 0.744859 -0.192423
vn -0.638873 0.744859 -0.192423
vn -0.638873 0.744859 -0.192423
vn -0.638873 0.744859 -0.192423
vn -0.638871 0.744860 0.192423
vn -0.638871 0.744860 0.192423
vn -0.638871 0.744860 0.192423
vn -0.638871 0.744860 0.192423
vn -0.192423 0.744860 0.638872
vn -0.192423 0.744860 0.638872
vn -0.192423 0.744860 0.638872
vn -0.192423 0.744860 0.638872
vn 0.192423 0.744860 0.638872
vn 0.192423 0.744860 0.638872
vn 0.192423 0.744860 0.638872
vn 0.192423 0.744860 0.638872
vn 1.000000 0.000000 0.000002
vn 1.000000 0.000000 0.000002
vn 1.000000 0.000000 0.000002
vn 1.000000 0.000000 0.000002
vn 1.000000 0.000000 -0.000002
vn 1.000000 0.000000 -0.000002
vn 1.000000 0.000000 -0.000002
vn 1.000000 0.000000 -0.000002
vn 0.000002 0.000000 -1.000000
vn 0.000002 0.000000 -1.000000
vn 0.000002 0.000000 -1.000000
vn 0.000002 0.000000 -1.000000
vn -0.000002 0.000000 -1.000000
vn -0.000002 0.000000 -1.000000
vn -0.000002 0.000000 -1.000000
vn -0.000002 0.000000 -1.000000
vn -1.000000 -0.000000 -0.000003
vn -1.000000 -0.000000 -0.000003
vn -1.000000 -0.000000 -0.000003
vn -1.000000 -0.000000 -0.000003
vn -1.000000 0.000000 0.000003
vn -1.000000 0.000000 0.000003
vn -1.000000 0.000000 0.000003
vn -1.000000 0.000000 0.000003
vn -0.000002 0.000000 1.000000
vn -0.000002 0.000000 1.000000
vn -0.000002 0.000000 1.000000
vn -0.000002 0.000000 1.000000
vn 0.000002 0.000000 1.000000
vn 0.000002 0.000000 1.000000
vn 0.000002 0.000000 1.000000
vn 0.000002 0.000000 1.000000
vn 0.000000 1.000000 0.000000
vn 0.000000 1.000000 0.000000
vn 0.000000 1.000000 0.000000
vn 0.000000 1.000000 0.000000
vn 0.000000 1.000000 0.000000
vn 0.000000 1.000000 0.000000
vn 0.000000 1.000000 0.000000
vn 0.000000 1.000000 0.000000
vn 0.000000 1.000000 0.000000
vn 0.000000 1.000000 0.000000
vn 0.000000 1.000000 0.000000
vn 0.000000 1.000000 0.000000
vn 0.000000 1.000000 0.000000
vn 0.000000 1.000000 0.000000
vn 0.000000 1.000000 0.000000
vn 0.000000 1.000000 0.000000
vn 0.000000 1.000000 -0.000000
vn 0.000000 1.000000 -0.000000
vn 0.000000 1.000000 -0.000000
vn 0.000000 1.000000 -0.000000
vn 0.000000 1.000000 0.000000
vn 0.000000 1.000000 0.000000
vn 0.000000 1.000000 0.000000
vn 0.000000 1.000000 0.000000
vn 0.000000 1.000000 0.000000
vn 0.000000 1.000000 0.000000
vn 0.000000 1.000000 0.000000
vn 0.000000 1.000000 0.000000
vn 0.000000 1.000000 -0.000000
vn 0.000000 1.000000 -0.000000
vn 0.000000 1.000000 -0.000000
vn 0.000000 1.000000 -0.000000
vn 0.382683 0.000000 -0.923880
vn 0.382683 0.000000 -0.923880
vn 0.382683 0.000000 -0.923880
vn 0.382683 0.000000 -0.923880
vn -0.382683 0.000000 -0.923880
vn -0.382683 0.000000 -0.923880
vn -0.382683 0.000000 -0.923880
vn -0.382683 0.000000 -0.923880
vn -0.923879 0.000000 -0.382684
vn -0.923879 0.000000 -0.382684
vn -0.923879 0.000000 -0.382684
vn -0.923879 0.000000 -0.382684
vn -0.923879 0.000000 0.382685
vn -0.923879 0.000000 0.382685
vn -0.923879 0.000000 0.382685
vn -0.923879 0.000000 0.382685
vn -0.382684 0.000000 0.923879
vn -0.382684 0.000000 0.923879
vn -0.382684 0.000000 0.923879
vn -0.382684 0.000000 0.923879
vn 0.382684 -0.000000 0.923880
vn 0.382684 -0.000000 0.923880
vn 0.382684 -0.000000 0.923880
vn 0.382684 -0.000000 0.923880
vn 0.923880 0.000000 0.382684
vn 0.923879 0.000000 0.382684
vn 0.923879 0.000000 0.382684
vn 0.923879 0.000000 0.382684
vn 0.923880 -0.000000 -0.382683
vn 0.923880 -0.000000 -0.382683
vn 0.923880 -0.000000 -0.382683
vn 0.923880 -0.000000 -0.382683
vn -0.612238 0.783141 0.108877
vn -0.612239 0.783141 0.108876
vn -0.612238 0.783141 0.108876
vn -0.612238 0.783141 0.108877
vn -0.612238 0.783141 0.108876
vn -0.612238 0.783141 0.108875
vn -0.612239 0.783141 0.108875
vn -0.612240 0.783140 0.108874
s 1
g pCylinder5
usemtl initialShadingGroup
f 25/42/1 26/43/2 27/44/3
f 26/43/2 28/45/4 27/44/3
f 28/45/4 29/47/5 27/44/3
f 29/47/5 30/49/6 27/44/3
f 30/49/6 31/50/7 27/44/3
f 31/50/7 32/48/8 27/44/3
f 32/48/8 33/46/9 27/44/3
f 33/46/9 25/42/1 27/44/3
s off
f 10/1/10 9/2/11 17/3/12 18/4/13
f 11/7/14 10/1/15 18/4/16 19/8/17
f 12/67/18 11/68/19 19/69/20 20/70/21
f 13/73/22 12/67/23 20/70/24 21/74/25
f 14/13/26 13/14/27 21/15/28 22/16/29
f 15/19/30 14/13/31 22/16/32 23/20/33
f 16/79/34 15/80/35 23/81/36 24/82/37
f 9/85/38 16/79/39 24/82/40 17/86/41
f 2/5/42 1/6/43 9/2/44 10/1/45
f 3/11/46 2/5/47 10/1/48 11/7/49
f 4/71/50 3/72/51 11/68/52 12/67/53
f 5/77/54 4/71/55 12/67/56 13/73/57
f 6/17/58 5/18/59 13/14/60 14/13/61
f 7/23/62 6/17/63 14/13/64 15/19/65
f 8/83/66 7/84/67 15/80/68 16/79/69
f 1/89/70 8/83/71 16/79/72 9/85/73
f 35/30/74 34/31/75 25/32/76 33/33/77
f 36/34/78 35/30/79 33/33/80 32/35/81
f 37/91/82 36/92/83 32/93/84 31/94/85
f 38/95/86 37/91/87 31/94/88 30/96/89
f 39/36/90 38/37/91 30/38/92 29/39/93
f 40/40/94 39/36/95 29/39/96 28/41/97
f 41/97/98 40/98/99 28/99/100 26/100/101
f 34/101/102 41/97/103 26/100/104 25/102/105
f 18/51/106 17/52/107 34/53/108 35/54/109
f 19/57/110 18/51/111 35/54/112 36/58/113
f 20/61/114 19/57/115 36/58/116 37/62/117
f 21/65/118 20/61/119 37/62/120 38/66/121
f 22/63/122 21/65/123 38/66/124 39/64/125
f 23/59/126 22/63/127 39/64/128 40/60/129
f 24/55/130 23/59/131 40/60/132 41/56/133
f 17/52/134 24/55/135 41/56/136 34/53/137
f 47/75/138 48/76/139 3/72/140 4/71/141
f 46/78/142 47/75/143 4/71/144 5/77/145
f 45/103/146 46/22/147 5/18/148 6/17/149
f 44/25/150 45/103/151 6/17/152 7/23/153
f 43/87/154 44/88/155 7/84/156 8/83/157
f 42/90/158 43/87/159 8/83/160 1/89/161
f 49/9/162 42/10/163 1/6/164 2/5/165
f 48/12/166 49/9/167 2/5/168 3/11/169
s 2
f 43/27/170 45/21/171 44/104/172
f 42/29/173 45/21/171 43/27/170
f 49/28/174 45/21/171 42/29/173
f 48/26/175 45/21/171 49/28/174
f 47/24/176 45/21/171 48/26/175
f 47/24/176 46/105/177 45/21/171
