# This file uses centimeters as units for non-parametric coordinates.

mtllib MDL piller.mtl
g default
v 0.728955 2.281822 0.728955
v 1.030899 2.281822 0.000000
v 0.728956 2.281822 -0.728955
v 0.000000 2.281822 -1.030899
v -0.728955 2.281822 -0.728955
v -1.030898 2.281822 0.000000
v -0.728955 2.281822 0.728955
v 0.000000 2.281822 1.030899
v 1.183282 1.845440 1.183282
v 1.457290 1.845438 0.000000
v 1.183282 1.845440 -1.183282
v 0.000000 1.845438 -1.457290
v -1.183282 1.845440 -1.183282
v -1.457290 1.845438 0.000000
v -1.183282 1.845440 1.183282
v 0.000000 1.845438 1.457290
v 1.183282 0.458582 1.183282
v 1.457290 0.458582 -0.000000
v 1.183282 0.458582 -1.183282
v 0.000000 0.458582 -1.457290
v -1.183282 0.458582 -1.183282
v -1.457290 0.458582 0.000000
v -1.183282 0.458582 1.183282
v 0.000000 0.458582 1.457290
v 1.543854 -0.000002 1.525138
v 0.000000 0.000000 1.525141
v 0.000000 0.000000 0.000000
v -1.525137 -0.000002 1.525138
v -1.525140 0.000000 0.000000
v -1.525137 -0.000002 -1.525138
v 0.000000 0.000000 -1.525141
v 1.543854 -0.000002 -1.525138
v 1.543858 0.000000 -0.000000
v 1.543854 0.458582 1.525138
v 1.543858 0.458582 -0.000000
v 1.543854 0.458582 -1.525138
v 0.000000 0.458582 -1.525141
v -1.525137 0.458582 -1.525138
v -1.525140 0.458582 0.000000
v -1.525137 0.458582 1.525138
v 0.000000 0.458582 1.525141
v 0.728955 18.440361 -0.728955
v 1.030899 18.440361 0.000000
v 0.728956 18.440361 0.728955
v 0.000000 18.440361 1.030899
v -0.728955 18.440361 0.728955
v -1.030898 18.440361 0.000000
v -0.728955 18.440361 -0.728955
v 0.000000 18.440361 -1.030899
v 1.183282 18.876743 -1.183282
v 1.457290 18.876745 0.000000
v 1.183282 18.876743 1.183282
v 0.000000 18.876745 1.457290
v -1.183282 18.876743 1.183282
v -1.457290 18.876745 0.000000
v -1.183282 18.876743 -1.183282
v 0.000000 18.876745 -1.457290
v 1.183282 20.263601 -1.183282
v 1.457290 20.263601 0.000000
v 1.183282 20.263601 1.183282
v 0.000000 20.263601 1.457290
v -1.183282 20.263601 1.183282
v -1.457290 20.263601 -0.000000
v -1.183282 20.263601 -1.183282
v 0.000000 20.263601 -1.457290
v 1.543854 20.722185 -1.525138
v 0.000000 20.722183 -1.525141
v 0.000000 20.722183 0.000000
v -1.525137 20.722185 -1.525138
v -1.525140 20.722183 -0.000000
v -1.525137 20.722185 1.525138
v 0.000000 20.722183 1.525141
v 1.543854 20.722185 1.525138
v 1.543858 20.722183 0.000000
v 1.543854 20.263601 -1.525138
v 1.543858 20.263601 0.000000
v 1.543854 20.263601 1.525138
v 0.000000 20.263601 1.525141
v -1.525137 20.263601 1.525138
v -1.525140 20.263601 -0.000000
v -1.525137 20.263601 -1.525138
v 0.000000 20.263601 -1.525141
vt 0.194029 0.103133
vt 0.232423 0.103133
vt 0.232423 0.887707
vt 0.194029 0.887707
vt 0.194029 0.071860
vt 0.248021 0.071860
vt 0.257441 0.918981
vt 0.194029 0.918981
vt 0.155636 0.103133
vt 0.155636 0.887707
vt 0.130618 0.071860
vt 0.194029 0.004455
vt 0.248021 0.004455
vt 0.257441 0.986386
vt 0.194029 0.986386
vt 0.140038 0.918981
vt 0.130618 0.004455
vt 0.140038 0.986386
vt 0.189408 0.103636
vt 0.227808 0.103636
vt 0.227808 0.888344
vt 0.189408 0.888344
vt 0.189408 0.072228
vt 0.239128 0.072228
vt 0.256952 0.919752
vt 0.189408 0.919752
vt 0.151007 0.103636
vt 0.151007 0.888344
vt 0.121863 0.072228
vt 0.189408 0.004745
vt 0.239128 0.004745
vt 0.256952 0.987234
vt 0.189408 0.987234
vt 0.139688 0.919752
vt 0.121863 0.004745
vt 0.139688 0.987234
vt 0.368234 0.143615
vt 0.368234 0.217709
vt 0.345955 0.217709
vt 0.345955 0.143615
vt 0.368234 0.069521
vt 0.345955 0.069521
vt 0.368234 0.143615
vt 0.368234 0.217709
vt 0.345955 0.217709
vt 0.345955 0.143615
vt 0.368234 0.069521
vt 0.345955 0.069521
vt 0.368234 0.143615
vt 0.368234 0.217709
vt 0.345955 0.217709
vt 0.345955 0.143615
vt 0.368234 0.069521
vt 0.345955 0.069521
vt 0.368234 0.143615
vt 0.368234 0.217709
vt 0.345955 0.217709
vt 0.345955 0.143615
vt 0.368234 0.069521
vt 0.345955 0.069521
vt 0.565871 0.035697
vt 0.565871 0.110701
vt 0.491777 0.110701
vt 0.565871 0.184795
vt 0.491777 0.035697
vt 0.491777 0.184795
vt 0.417683 0.035697
vt 0.417683 0.184795
vt 0.417683 0.110701
vt 0.516292 0.818675
vt 0.458806 0.831987
vt 0.442198 0.814470
vt 0.516292 0.814470
vt 0.445494 0.889473
vt 0.442198 0.889473
vt 0.573778 0.831987
vt 0.590386 0.814470
vt 0.458806 0.946959
vt 0.442198 0.963567
vt 0.587090 0.889473
vt 0.590386 0.889473
vt 0.516292 0.960271
vt 0.516292 0.963567
vt 0.573778 0.946959
vt 0.590386 0.963567
vt 0.565871 0.035697
vt 0.565871 0.110701
vt 0.491777 0.110701
vt 0.565871 0.184795
vt 0.491777 0.035697
vt 0.491777 0.184795
vt 0.417683 0.035698
vt 0.417683 0.184795
vt 0.417683 0.110701
vt 0.516292 0.818676
vt 0.458806 0.831987
vt 0.442198 0.814470
vt 0.516292 0.814470
vt 0.445494 0.889473
vt 0.442198 0.889473
vt 0.573778 0.831987
vt 0.590386 0.814470
vt 0.458806 0.946959
vt 0.442198 0.963567
vt 0.587090 0.889473
vt 0.590386 0.889473
vt 0.516292 0.960271
vt 0.516292 0.963568
vt 0.573778 0.946959
vt 0.590386 0.963567
vt 0.194029 0.887707
vt 0.155636 0.887707
vt 0.155636 0.103133
vt 0.194029 0.103133
vt 0.194029 0.918980
vt 0.140038 0.918981
vt 0.130618 0.071860
vt 0.194029 0.071860
vt 0.232423 0.887707
vt 0.232423 0.103133
vt 0.257441 0.918981
vt 0.194029 0.986386
vt 0.140038 0.986386
vt 0.130618 0.004454
vt 0.194029 0.004454
vt 0.248021 0.071860
vt 0.257441 0.986386
vt 0.248021 0.004454
vt 0.194029 0.103133
vt 0.232423 0.103133
vt 0.232423 0.887707
vt 0.194029 0.887707
vt 0.194029 0.071860
vt 0.248021 0.071860
vt 0.257441 0.918980
vt 0.194029 0.918980
vt 0.155636 0.103133
vt 0.155636 0.887707
vt 0.130618 0.071860
vt 0.194029 0.004454
vt 0.248021 0.004454
vt 0.257441 0.986386
vt 0.194029 0.986386
vt 0.140038 0.918980
vt 0.130618 0.004454
vt 0.140038 0.986386
vt 0.368175 0.143163
vt 0.368175 0.217769
vt 0.346014 0.217769
vt 0.346014 0.143163
vt 0.368175 0.069462
vt 0.346014 0.069462
vt 0.368175 0.144068
vt 0.368175 0.217769
vt 0.346014 0.217769
vt 0.346014 0.144068
vt 0.368175 0.069462
vt 0.346014 0.069462
vt 0.346014 0.144068
vt 0.346014 0.069462
vt 0.368175 0.069462
vt 0.368175 0.144068
vt 0.346014 0.217769
vt 0.368175 0.217769
vt 0.368175 0.144068
vt 0.368175 0.217769
vt 0.346014 0.217769
vt 0.346014 0.144068
vt 0.368175 0.069462
vt 0.346014 0.069462
vn 0.382683 -0.000000 0.923880
vn 0.382683 -0.000000 0.923880
vn 0.382683 -0.000000 0.923880
vn 0.382683 -0.000000 0.923880
vn -0.382683 -0.000000 0.923880
vn -0.382683 -0.000000 0.923880
vn -0.382683 -0.000000 0.923880
vn -0.382683 -0.000000 0.923880
vn -0.923880 -0.000000 0.382683
vn -0.923880 -0.000000 0.382683
vn -0.923880 -0.000000 0.382683
vn -0.923880 -0.000000 0.382683
vn -0.923880 0.000000 -0.382683
vn -0.923880 0.000000 -0.382683
vn -0.923880 0.000000 -0.382683
vn -0.923880 0.000000 -0.382683
vn -0.382683 0.000000 -0.923880
vn -0.382683 0.000000 -0.923880
vn -0.382683 0.000000 -0.923880
vn -0.382683 0.000000 -0.923880
vn 0.382683 0.000000 -0.923880
vn 0.382683 0.000000 -0.923880
vn 0.382683 0.000000 -0.923880
vn 0.382683 0.000000 -0.923880
vn 0.923880 0.000000 -0.382684
vn 0.923880 0.000000 -0.382684
vn 0.923880 0.000000 -0.382684
vn 0.923880 0.000000 -0.382684
vn 0.923880 -0.000000 0.382684
vn 0.923880 -0.000000 0.382684
vn 0.923880 -0.000000 0.382684
vn 0.923880 -0.000000 0.382684
vn -0.000001 -1.000000 -0.000001
vn -0.000000 -1.000000 0.000000
vn -0.000000 -1.000000 -0.000000
vn 0.000001 -1.000000 -0.000001
vn 0.000000 -1.000000 -0.000000
vn 0.000001 -1.000000 0.000001
vn -0.000000 -1.000000 -0.000000
vn -0.000001 -1.000000 0.000001
vn 0.000000 -1.000000 0.000000
vn 0.974221 -0.000000 0.225597
vn 0.974221 -0.000000 0.225597
vn 0.974221 -0.000000 0.225597
vn 0.974221 -0.000000 0.225597
vn 0.974221 0.000000 -0.225597
vn 0.974221 0.000000 -0.225597
vn 0.974221 0.000000 -0.225597
vn 0.974221 0.000000 -0.225597
vn 0.225596 0.000000 -0.974221
vn 0.225596 0.000000 -0.974221
vn 0.225596 0.000000 -0.974221
vn 0.225596 0.000000 -0.974221
vn -0.225597 0.000000 -0.974221
vn -0.225597 0.000000 -0.974221
vn -0.225597 0.000000 -0.974221
vn -0.225597 0.000000 -0.974221
vn -0.974221 0.000000 -0.225597
vn -0.974221 0.000000 -0.225597
vn -0.974221 0.000000 -0.225597
vn -0.974221 0.000000 -0.225597
vn -0.974221 0.000000 0.225597
vn -0.974221 0.000000 0.225597
vn -0.974221 0.000000 0.225597
vn -0.974221 0.000000 0.225597
vn -0.225596 0.000000 0.974221
vn -0.225596 0.000000 0.974221
vn -0.225596 0.000000 0.974221
vn -0.225596 0.000000 0.974221
vn 0.225597 0.000000 0.974221
vn 0.225597 0.000000 0.974221
vn 0.225597 0.000000 0.974221
vn 0.225597 0.000000 0.974221
vn 0.638872 0.744860 0.192423
vn 0.638872 0.744860 0.192423
vn 0.638872 0.744860 0.192423
vn 0.638872 0.744860 0.192423
vn 0.638872 0.744860 -0.192423
vn 0.638872 0.744860 -0.192423
vn 0.638872 0.744860 -0.192423
vn 0.638872 0.744860 -0.192423
vn 0.192422 0.744860 -0.638872
vn 0.192422 0.744860 -0.638872
vn 0.192422 0.744860 -0.638872
vn 0.192422 0.744860 -0.638872
vn -0.192423 0.744860 -0.638872
vn -0.192423 0.744860 -0.638872
vn -0.192423 0.744860 -0.638872
vn -0.192423 0.744860 -0.638872
vn -0.638872 0.744860 -0.192423
vn -0.638872 0.744860 -0.192423
vn -0.638872 0.744860 -0.192423
vn -0.638872 0.744860 -0.192423
vn -0.638872 0.744860 0.192423
vn -0.638872 0.744860 0.192423
vn -0.638872 0.744860 0.192423
vn -0.638872 0.744860 0.192423
vn -0.192423 0.744860 0.638872
vn -0.192423 0.744860 0.638872
vn -0.192423 0.744860 0.638872
vn -0.192423 0.744860 0.638872
vn 0.192423 0.744860 0.638872
vn 0.192423 0.744860 0.638872
vn 0.192423 0.744860 0.638872
vn 0.192423 0.744860 0.638872
vn 1.000000 -0.000000 0.000002
vn 1.000000 -0.000000 0.000002
vn 1.000000 -0.000000 0.000002
vn 1.000000 -0.000000 0.000002
vn 1.000000 0.000000 -0.000002
vn 1.000000 0.000000 -0.000002
vn 1.000000 0.000000 -0.000002
vn 1.000000 0.000000 -0.000002
vn 0.000002 0.000000 -1.000000
vn 0.000002 0.000000 -1.000000
vn 0.000002 0.000000 -1.000000
vn 0.000002 0.000000 -1.000000
vn -0.000002 0.000000 -1.000000
vn -0.000002 0.000000 -1.000000
vn -0.000002 0.000000 -1.000000
vn -0.000002 0.000000 -1.000000
vn -1.000000 -0.000000 -0.000002
vn -1.000000 -0.000000 -0.000002
vn -1.000000 -0.000000 -0.000002
vn -1.000000 -0.000000 -0.000002
vn -1.000000 0.000000 0.000002
vn -1.000000 0.000000 0.000002
vn -1.000000 0.000000 0.000002
vn -1.000000 0.000000 0.000002
vn -0.000002 0.000000 1.000000
vn -0.000002 0.000000 1.000000
vn -0.000002 0.000000 1.000000
vn -0.000002 0.000000 1.000000
vn 0.000002 0.000000 1.000000
vn 0.000002 0.000000 1.000000
vn 0.000002 0.000000 1.000000
vn 0.000002 0.000000 1.000000
vn 0.000000 1.000000 -0.000000
vn 0.000000 1.000000 -0.000000
vn 0.000000 1.000000 -0.000000
vn 0.000000 1.000000 -0.000000
vn 0.000000 1.000000 0.000000
vn 0.000000 1.000000 0.000000
vn 0.000000 1.000000 0.000000
vn 0.000000 1.000000 0.000000
vn 0.000000 1.000000 -0.000000
vn 0.000000 1.000000 -0.000000
vn 0.000000 1.000000 -0.000000
vn 0.000000 1.000000 -0.000000
vn 0.000000 1.000000 0.000000
vn 0.000000 1.000000 0.000000
vn 0.000000 1.000000 0.000000
vn 0.000000 1.000000 0.000000
vn 0.000000 1.000000 -0.000000
vn 0.000000 1.000000 -0.000000
vn 0.000000 1.000000 -0.000000
vn 0.000000 1.000000 -0.000000
vn 0.000000 1.000000 0.000000
vn 0.000000 1.000000 0.000000
vn 0.000000 1.000000 0.000000
vn 0.000000 1.000000 0.000000
vn 0.000000 1.000000 -0.000000
vn 0.000000 1.000000 -0.000000
vn 0.000000 1.000000 -0.000000
vn 0.000000 1.000000 -0.000000
vn 0.000000 1.000000 0.000000
vn 0.000000 1.000000 0.000000
vn 0.000000 1.000000 0.000000
vn 0.000000 1.000000 0.000000
vn -0.000001 1.000000 0.000000
vn -0.000000 1.000000 -0.000000
vn -0.000000 1.000000 -0.000000
vn 0.000001 1.000000 -0.000000
vn 0.000000 1.000000 -0.000001
vn 0.000001 1.000000 -0.000001
vn -0.000000 1.000000 -0.000000
vn -0.000001 1.000000 -0.000000
vn 0.000000 1.000000 0.000000
vn 0.974221 -0.000000 -0.225597
vn 0.974221 -0.000000 -0.225597
vn 0.974221 -0.000000 -0.225597
vn 0.974221 -0.000000 -0.225597
vn 0.974221 0.000000 0.225597
vn 0.974221 0.000000 0.225597
vn 0.974221 0.000000 0.225597
vn 0.974221 0.000000 0.225597
vn 0.225596 0.000000 0.974221
vn 0.225596 0.000000 0.974221
vn 0.225596 0.000000 0.974221
vn 0.225596 0.000000 0.974221
vn -0.225597 -0.000000 0.974221
vn -0.225597 -0.000000 0.974221
vn -0.225597 -0.000000 0.974221
vn -0.225597 -0.000000 0.974221
vn -0.974221 -0.000000 0.225597
vn -0.974221 -0.000000 0.225597
vn -0.974221 -0.000000 0.225597
vn -0.974221 -0.000000 0.225597
vn -0.974221 0.000000 -0.225597
vn -0.974221 0.000000 -0.225597
vn -0.974221 0.000000 -0.225597
vn -0.974221 0.000000 -0.225597
vn -0.225596 -0.000000 -0.974221
vn -0.225596 -0.000000 -0.974221
vn -0.225596 -0.000000 -0.974221
vn -0.225596 -0.000000 -0.974221
vn 0.225596 -0.000000 -0.974221
vn 0.225596 -0.000000 -0.974221
vn 0.225596 -0.000000 -0.974221
vn 0.225596 -0.000000 -0.974221
vn 0.638872 -0.744860 -0.192422
vn 0.638872 -0.744860 -0.192422
vn 0.638872 -0.744860 -0.192422
vn 0.638872 -0.744860 -0.192422
vn 0.638872 -0.744860 0.192422
vn 0.638872 -0.744860 0.192422
vn 0.638872 -0.744860 0.192422
vn 0.638872 -0.744860 0.192422
vn 0.192423 -0.744862 0.638870
vn 0.192423 -0.744862 0.638870
vn 0.192423 -0.744862 0.638870
vn 0.192423 -0.744862 0.638870
vn -0.192423 -0.744860 0.638871
vn -0.192423 -0.744860 0.638871
vn -0.192423 -0.744860 0.638871
vn -0.192423 -0.744860 0.638871
vn -0.638872 -0.744860 0.192422
vn -0.638872 -0.744860 0.192422
vn -0.638872 -0.744860 0.192422
vn -0.638872 -0.744860 0.192422
vn -0.638872 -0.744860 -0.192422
vn -0.638872 -0.744860 -0.192422
vn -0.638872 -0.744860 -0.192422
vn -0.638872 -0.744860 -0.192422
vn -0.192423 -0.744861 -0.638871
vn -0.192423 -0.744861 -0.638871
vn -0.192423 -0.744861 -0.638871
vn -0.192423 -0.744861 -0.638871
vn 0.192423 -0.744861 -0.638870
vn 0.192423 -0.744861 -0.638870
vn 0.192423 -0.744861 -0.638870
vn 0.192423 -0.744861 -0.638870
vn 1.000000 0.000000 -0.000002
vn 1.000000 0.000000 -0.000002
vn 1.000000 0.000000 -0.000002
vn 1.000000 0.000000 -0.000002
vn 1.000000 0.000000 0.000002
vn 1.000000 0.000000 0.000002
vn 1.000000 0.000000 0.000002
vn 1.000000 0.000000 0.000002
vn 0.000002 0.000000 1.000000
vn 0.000002 0.000000 1.000000
vn 0.000002 0.000000 1.000000
vn 0.000002 0.000000 1.000000
vn -0.000002 0.000000 1.000000
vn -0.000002 0.000000 1.000000
vn -0.000002 0.000000 1.000000
vn -0.000002 0.000000 1.000000
vn -1.000000 0.000000 0.000002
vn -1.000000 0.000000 0.000002
vn -1.000000 0.000000 0.000002
vn -1.000000 0.000000 0.000002
vn -1.000000 0.000000 -0.000002
vn -1.000000 0.000000 -0.000002
vn -1.000000 0.000000 -0.000002
vn -1.000000 0.000000 -0.000002
vn -0.000002 0.000000 -1.000000
vn -0.000002 0.000000 -1.000000
vn -0.000002 0.000000 -1.000000
vn -0.000002 0.000000 -1.000000
vn 0.000002 0.000000 -1.000000
vn 0.000002 0.000000 -1.000000
vn 0.000002 0.000000 -1.000000
vn 0.000002 0.000000 -1.000000
vn 0.000000 -1.000000 -0.000000
vn 0.000000 -1.000000 -0.000000
vn 0.000000 -1.000000 -0.000000
vn 0.000000 -1.000000 -0.000000
vn 0.000000 -1.000000 0.000000
vn 0.000000 -1.000000 0.000000
vn 0.000000 -1.000000 0.000000
vn 0.000000 -1.000000 0.000000
vn 0.000000 -1.000000 -0.000001
vn 0.000000 -1.000000 -0.000001
vn 0.000000 -1.000000 -0.000001
vn 0.000000 -1.000000 -0.000001
vn 0.000000 -1.000000 0.000003
vn 0.000000 -1.000000 0.000003
vn 0.000000 -1.000000 0.000003
vn 0.000000 -1.000000 0.000003
vn 0.000000 -1.000000 0.000000
vn 0.000000 -1.000000 0.000000
vn 0.000000 -1.000000 0.000000
vn 0.000000 -1.000000 0.000000
vn 0.000000 -1.000000 0.000000
vn 0.000000 -1.000000 0.000000
vn 0.000000 -1.000000 0.000000
vn 0.000000 -1.000000 0.000000
vn 0.000000 -1.000000 -0.000001
vn 0.000000 -1.000000 -0.000001
vn 0.000000 -1.000000 -0.000001
vn 0.000000 -1.000000 -0.000001
vn 0.000000 -1.000000 -0.000003
vn 0.000000 -1.000000 -0.000003
vn 0.000000 -1.000000 -0.000003
vn 0.000000 -1.000000 -0.000003
s off
g pCylinder3
usemtl initialShadingGroup
f 8/111/1 1/112/2 44/113/3 45/114/4
f 7/119/5 8/111/6 45/114/7 46/120/8
f 6/1/9 7/2/10 46/3/11 47/4/12
f 5/9/13 6/1/14 47/4/15 48/10/16
f 4/129/17 5/130/18 48/131/19 49/132/20
f 3/137/21 4/129/22 49/132/23 42/138/24
f 2/19/25 3/20/26 42/21/27 43/22/28
f 1/27/29 2/19/30 43/22/31 44/28/32
s 1
f 25/61/33 26/62/34 27/63/35
f 26/62/34 28/64/36 27/63/35
f 28/64/36 29/66/37 27/63/35
f 29/66/37 30/68/38 27/63/35
f 30/68/38 31/69/39 27/63/35
f 31/69/39 32/67/40 27/63/35
f 32/67/40 33/65/41 27/63/35
f 33/65/41 25/61/33 27/63/35
s off
f 10/23/42 9/29/43 17/35/44 18/30/45
f 11/24/46 10/23/47 18/30/48 19/31/49
f 12/133/50 11/139/51 19/145/52 20/140/53
f 13/134/54 12/133/55 20/140/56 21/141/57
f 14/5/58 13/11/59 21/17/60 22/12/61
f 15/6/62 14/5/63 22/12/64 23/13/65
f 16/115/66 15/121/67 23/127/68 24/122/69
f 9/116/70 16/115/71 24/122/72 17/123/73
f 2/19/74 1/27/75 9/29/76 10/23/77
f 3/20/78 2/19/79 10/23/80 11/24/81
f 4/129/82 3/137/83 11/139/84 12/133/85
f 5/130/86 4/129/87 12/133/88 13/134/89
f 6/1/90 5/9/91 13/11/92 14/5/93
f 7/2/94 6/1/95 14/5/96 15/6/97
f 8/111/98 7/119/99 15/121/100 16/115/101
f 1/112/102 8/111/103 16/115/104 9/116/105
f 35/37/106 34/38/107 25/39/108 33/40/109
f 36/41/110 35/37/111 33/40/112 32/42/113
f 37/147/114 36/148/115 32/149/116 31/150/117
f 38/151/118 37/147/119 31/150/120 30/152/121
f 39/43/122 38/44/123 30/45/124 29/46/125
f 40/47/126 39/43/127 29/46/128 28/48/129
f 41/153/130 40/154/131 28/155/132 26/156/133
f 34/157/134 41/153/135 26/156/136 25/158/137
f 18/70/138 17/71/139 34/72/140 35/73/141
f 19/76/142 18/70/143 35/73/144 36/77/145
f 20/80/146 19/76/147 36/77/148 37/81/149
f 21/84/150 20/80/151 37/81/152 38/85/153
f 22/82/154 21/84/155 38/85/156 39/83/157
f 23/78/158 22/82/159 39/83/160 40/79/161
f 24/74/162 23/78/163 40/79/164 41/75/165
f 17/71/166 24/74/167 41/75/168 34/72/169
s 2
f 66/86/170 67/87/171 68/88/172
f 67/87/171 69/89/173 68/88/172
f 69/89/173 70/91/174 68/88/172
f 70/91/174 71/93/175 68/88/172
f 71/93/175 72/94/176 68/88/172
f 72/94/176 73/92/177 68/88/172
f 73/92/177 74/90/178 68/88/172
f 74/90/178 66/86/170 68/88/172
s off
f 51/26/179 50/25/180 58/32/181 59/33/182
f 52/34/183 51/26/184 59/33/185 60/36/186
f 53/118/187 52/117/188 60/124/189 61/125/190
f 54/126/191 53/118/192 61/125/193 62/128/194
f 55/8/195 54/7/196 62/14/197 63/15/198
f 56/16/199 55/8/200 63/15/201 64/18/202
f 57/136/203 56/135/204 64/142/205 65/143/206
f 50/144/207 57/136/208 65/143/209 58/146/210
f 43/22/211 42/21/212 50/25/213 51/26/214
f 44/28/215 43/22/216 51/26/217 52/34/218
f 45/114/219 44/113/220 52/117/221 53/118/222
f 46/120/223 45/114/224 53/118/225 54/126/226
f 47/4/227 46/3/228 54/7/229 55/8/230
f 48/10/231 47/4/232 55/8/233 56/16/234
f 49/132/235 48/131/236 56/135/237 57/136/238
f 42/138/239 49/132/240 57/136/241 50/144/242
f 76/49/243 75/50/244 66/51/245 74/52/246
f 77/53/247 76/49/248 74/52/249 73/54/250
f 78/159/251 77/160/252 73/161/253 72/162/254
f 79/163/255 78/159/256 72/162/257 71/164/258
f 80/55/259 79/56/260 71/57/261 70/58/262
f 81/59/263 80/55/264 70/58/265 69/60/266
f 82/165/267 81/166/268 69/167/269 67/168/270
f 75/169/271 82/165/272 67/168/273 66/170/274
f 59/95/275 58/96/276 75/97/277 76/98/278
f 60/101/279 59/95/280 76/98/281 77/102/282
f 61/105/283 60/101/284 77/102/285 78/106/286
f 62/109/287 61/105/288 78/106/289 79/110/290
f 63/107/291 62/109/292 79/110/293 80/108/294
f 64/103/295 63/107/296 80/108/297 81/104/298
f 65/99/299 64/103/300 81/104/301 82/100/302
f 58/96/303 65/99/304 82/100/305 75/97/306
