# This file uses centimeters as units for non-parametric coordinates.

mtllib broken sward 2.mtl
g default
v -8.024441 -0.011553 -0.905336
v -8.024441 0.011936 -0.905336
v -8.000523 0.000191 -0.905336
v -8.000523 0.023680 -0.905336
v -7.976604 0.011936 -0.905336
v -7.976604 -0.011553 -0.905336
v -8.000523 -0.023297 -0.905336
v -8.103253 -0.023188 0.242587
v -8.103253 0.023571 0.242587
v -7.897792 0.023571 0.242587
v -7.897792 -0.023188 0.242587
v -8.084071 -0.020389 -0.819938
v -7.916974 -0.020389 -0.819938
v -7.916974 0.020772 -0.819938
v -8.084071 0.020772 -0.819938
v -8.040375 0.041247 0.242588
v -7.960670 0.041247 0.242588
v -7.960670 -0.040864 0.242587
v -8.040375 -0.040864 0.242587
v -8.040375 0.035180 -0.819938
v -7.960670 0.035180 -0.819938
v -8.000523 0.036274 -0.844480
v -7.960670 -0.034796 -0.819938
v -8.040375 -0.034796 -0.819938
v -8.000523 -0.035891 -0.844481
v -7.983964 0.037136 0.254144
v -8.017081 0.037136 0.254144
v -7.983964 0.031675 -0.688321
v -8.017081 0.031675 -0.688321
v -8.017081 -0.036752 0.254143
v -7.983964 -0.036752 0.254143
v -8.017081 -0.031292 -0.688321
v -7.983964 -0.031292 -0.688321
v -8.107581 -0.025970 0.776405
v -8.107404 0.026238 0.754472
v -7.892602 0.026906 0.882621
v -7.892418 -0.026641 0.905336
v -7.960670 0.046963 0.833456
v -8.040375 0.046504 0.785994
v -8.040375 -0.046501 0.825255
v -7.960670 -0.046963 0.873106
v -7.983964 0.042702 0.821327
v -8.017081 0.042508 0.801609
v -8.017081 -0.042477 0.837484
v -7.983964 -0.042672 0.857367
vt 0.288338 0.295635
vt 0.314060 0.295635
vt 0.312520 0.880110
vt 0.289878 0.880110
vt 0.286808 0.001992
vt 0.315527 0.014057
vt 0.307659 0.927085
vt 0.294739 0.927085
vt 0.028433 0.633442
vt 0.002711 0.633442
vt 0.004251 0.048968
vt 0.026893 0.048968
vt 0.030267 0.985513
vt 0.000812 0.998008
vt 0.009112 0.001992
vt 0.022032 0.001992
vt 0.142021 0.048968
vt 0.117984 0.048968
vt 0.096063 0.035467
vt 0.096063 0.001992
vt 0.109220 0.001992
vt 0.152573 0.633442
vt 0.117984 0.633442
vt 0.074141 0.048968
vt 0.050104 0.048968
vt 0.082906 0.001992
vt 0.155529 0.998008
vt 0.117984 0.980279
vt 0.105171 0.639799
vt 0.105171 0.121368
vt 0.086954 0.121368
vt 0.074141 0.633442
vt 0.039552 0.633442
vt 0.105171 0.971621
vt 0.086954 0.639799
vt 0.074141 0.953957
vt 0.037172 0.927085
vt 0.086954 0.960684
vt 0.174824 0.938537
vt 0.198861 0.938537
vt 0.220783 0.952037
vt 0.220783 0.985513
vt 0.207626 0.985513
vt 0.164273 0.354063
vt 0.198861 0.354062
vt 0.242705 0.938537
vt 0.266742 0.938537
vt 0.233940 0.985513
vt 0.161990 0.072485
vt 0.198861 0.055145
vt 0.211674 0.347705
vt 0.211674 0.866137
vt 0.229892 0.866137
vt 0.242705 0.354062
vt 0.277293 0.354063
vt 0.211674 0.046556
vt 0.229892 0.347705
vt 0.242705 0.029037
vt 0.280148 0.001992
vt 0.229892 0.035709
vt 0.400255 0.028306
vt 0.387334 0.028306
vt 0.393795 0.015149
vt 0.380874 0.015149
vt 0.406715 0.015149
vt 0.387334 0.001992
vt 0.400255 0.001992
vt 0.374654 0.039536
vt 0.322987 0.039536
vt 0.334166 0.001992
vt 0.363621 0.002093
vt 0.372310 0.052350
vt 0.325348 0.052350
vt 0.372203 0.070567
vt 0.325455 0.070567
vt 0.374401 0.083380
vt 0.323241 0.083380
vt 0.334535 0.120349
vt 0.363254 0.120252
vn 0.000000 0.000000 -1.000000
vn 0.000000 0.000000 -1.000000
vn 0.000000 0.000000 -1.000000
vn 0.000000 0.000000 -1.000000
vn 0.000000 0.000000 -1.000000
vn 0.000000 0.000000 -1.000000
vn 0.000000 0.000000 -1.000000
vn -0.999895 0.000000 -0.014495
vn -0.999895 0.000000 -0.014495
vn -0.998544 0.000000 -0.053938
vn -0.998544 0.000000 -0.053938
vn 0.999903 0.000000 -0.013947
vn 0.999903 0.000000 -0.013947
vn 0.998544 0.000000 -0.053937
vn 0.998544 0.000000 -0.053937
vn 0.288880 -0.957170 -0.019339
vn 0.288205 -0.956901 -0.035747
vn -0.000001 -0.965997 -0.258552
vn 0.291257 -0.915361 -0.277999
vn 0.291257 -0.915361 -0.277999
vn 0.819898 0.000000 -0.572509
vn 0.819898 0.000000 -0.572509
vn -0.288884 0.957169 -0.019339
vn -0.288209 0.956900 -0.035747
vn -0.000001 0.965996 -0.258557
vn -0.291254 0.915362 -0.277999
vn -0.291254 0.915362 -0.277999
vn -0.819898 0.000000 -0.572509
vn -0.819898 0.000000 -0.572509
vn 0.288213 0.956899 -0.035747
vn 0.288889 0.957167 -0.019339
vn 0.291255 0.915361 -0.278002
vn 0.291255 0.915361 -0.278002
vn -0.288201 -0.956903 -0.035746
vn -0.288875 -0.957171 -0.019339
vn -0.291256 -0.915362 -0.277996
vn -0.291256 -0.915362 -0.277996
vn -0.000001 0.999973 -0.007287
vn -0.000001 0.999973 -0.007287
vn 0.000000 0.999983 -0.005794
vn 0.000000 0.999983 -0.005794
vn 0.000002 -0.999973 -0.007346
vn 0.000002 -0.999973 -0.007346
vn 0.000000 -0.999983 -0.005793
vn 0.000000 -0.999983 -0.005793
vn -0.284546 0.958635 -0.007247
vn -0.284574 0.958627 -0.007242
vn 0.284724 0.958582 -0.007279
vn 0.284699 0.958589 -0.007284
vn 0.284777 -0.958566 -0.007311
vn 0.284801 -0.958559 -0.007306
vn -0.284602 -0.958618 -0.007272
vn -0.284575 -0.958626 -0.007277
vn 0.279739 0.960041 -0.008238
vn 0.279739 0.960041 -0.008238
vn -0.278915 -0.960280 -0.008322
vn -0.278915 -0.960280 -0.008322
vn 0.176866 0.984188 -0.009589
vn 0.176866 0.984188 -0.009589
vn 0.176866 0.984188 -0.009589
vn 0.176866 0.984188 -0.009589
vn -0.178244 0.983970 -0.005657
vn -0.178244 0.983970 -0.005657
vn -0.178244 0.983970 -0.005657
vn -0.178244 0.983970 -0.005657
vn 0.000000 0.999646 0.026617
vn 0.000000 0.999646 0.026617
vn 0.000000 0.999646 0.026617
vn 0.000000 0.999646 0.026617
vn 0.178254 0.983968 -0.005658
vn 0.178254 0.983968 -0.005658
vn 0.178254 0.983968 -0.005658
vn 0.178254 0.983968 -0.005658
vn -0.176670 -0.984224 -0.009588
vn -0.176670 -0.984224 -0.009588
vn -0.176670 -0.984224 -0.009588
vn -0.176670 -0.984224 -0.009588
vn 0.178241 -0.983971 -0.005657
vn 0.178241 -0.983971 -0.005657
vn 0.178241 -0.983971 -0.005657
vn 0.178241 -0.983971 -0.005657
vn 0.000000 -0.999646 0.026612
vn 0.000000 -0.999646 0.026612
vn 0.000000 -0.999646 0.026612
vn 0.000000 -0.999646 0.026612
vn -0.178235 -0.983972 -0.005657
vn -0.178235 -0.983972 -0.005657
vn -0.178235 -0.983972 -0.005657
vn -0.178235 -0.983972 -0.005657
vn -0.999967 0.000000 -0.008107
vn -0.999967 0.000000 -0.008107
vn 0.999967 0.000000 -0.008108
vn 0.999967 0.000000 -0.008108
vn -0.000002 0.999952 -0.009813
vn -0.000002 0.999952 -0.009813
vn 0.000006 -0.999952 -0.009813
vn 0.000006 -0.999952 -0.009813
vn -0.278484 0.960405 -0.008306
vn -0.278484 0.960405 -0.008306
vn 0.280181 -0.959912 -0.008254
vn 0.280181 -0.959912 -0.008254
vn -0.176776 0.984204 -0.009588
vn -0.176776 0.984204 -0.009588
vn -0.176776 0.984204 -0.009588
vn -0.176776 0.984204 -0.009588
vn 0.176760 -0.984207 -0.009590
vn 0.176760 -0.984207 -0.009590
vn 0.176760 -0.984207 -0.009590
vn 0.176760 -0.984207 -0.009590
vn -0.482481 0.340645 0.806953
vn -0.482481 0.340646 0.806953
vn -0.482480 0.340646 0.806953
vn -0.482480 0.340646 0.806953
vn -0.482485 0.340652 0.806947
vn -0.482488 0.340652 0.806946
vn -0.482487 0.340652 0.806947
vn -0.482485 0.340652 0.806947
vn -0.482482 0.340646 0.806952
vn -0.482484 0.340647 0.806950
vn -0.482480 0.340644 0.806954
vn -0.482479 0.340644 0.806955
s 1
g broken_sward_2
usemtl initialShadingGroup
f 1/61/1 2/62/2 3/63/3
f 2/62/2 4/64/4 3/63/3
f 4/64/4 5/66/5 3/63/3
f 5/66/5 6/67/6 3/63/3
f 6/67/6 7/65/7 3/63/3
f 7/65/7 1/61/1 3/63/3
s 2
f 8/1/8 9/2/9 15/3/10 12/4/11
s 3
f 10/9/12 11/10/13 13/11/14 14/12/15
s 4
f 13/17/16 23/18/17 25/19/18 7/20/19 6/21/20
s 3
f 14/12/15 13/11/14 6/15/21 5/16/22
s 5
f 15/39/23 20/40/24 22/41/25 4/42/26 2/43/27
s 2
f 12/4/11 15/3/10 2/7/28 1/8/29
s 5
f 22/41/25 21/46/30 14/47/31 5/48/32 4/42/33
s 4
f 25/19/18 24/24/34 12/25/35 1/26/36 7/20/37
s 6
f 27/51/38 26/57/39 28/53/40 29/52/41
s 7
f 31/29/42 30/35/43 32/31/44 33/30/45
s 5
f 9/44/46 16/45/47 20/40/24 15/39/23
f 17/54/48 10/55/49 14/47/31 21/46/30
s 4
f 11/22/50 18/23/51 23/18/17 13/17/16
f 19/32/52 8/33/53 12/25/35 24/24/34
s 5
f 17/54/48 38/58/54 36/59/55 10/55/49
s 4
f 19/32/52 40/36/56 34/37/57 8/33/53
s 5
f 20/40/24 21/46/30 22/41/25
s 4
f 23/18/17 24/24/34 25/19/18
s off
f 16/45/58 39/50/59 43/56/60 27/51/61
f 17/54/62 21/46/63 28/53/64 26/57/65
f 21/46/66 20/40/67 29/52/68 28/53/69
f 20/40/70 16/45/71 27/51/72 29/52/73
f 18/23/74 41/28/75 45/34/76 31/29/77
f 19/32/78 24/24/79 32/31/80 30/35/81
f 24/24/82 23/18/83 33/30/84 32/31/85
f 23/18/86 18/23/87 31/29/88 33/30/89
s 2
f 34/5/90 35/6/91 9/2/9 8/1/8
s 3
f 36/13/92 37/14/93 11/10/13 10/9/12
s 6
f 43/56/94 42/60/95 26/57/39 27/51/38
s 7
f 45/34/96 44/38/97 30/35/43 31/29/42
s 5
f 35/49/98 39/50/99 16/45/47 9/44/46
s 4
f 37/27/100 41/28/101 18/23/51 11/22/50
s off
f 42/60/102 38/58/103 17/54/104 26/57/105
f 44/38/106 40/36/107 19/32/108 30/35/109
s 8
f 38/68/110 41/69/111 37/70/112 36/71/113
f 34/78/114 40/77/115 39/76/116 35/79/117
f 39/76/116 40/77/115 44/75/118 43/74/119
f 43/74/119 44/75/118 45/73/120 42/72/121
f 42/72/121 45/73/120 41/69/111 38/68/110
