# This file uses centimeters as units for non-parametric coordinates.

mtllib broken sheild 1.mtl
g default
v -6.000000 -0.047468 1.590044
v -6.000000 -0.047468 0.046761
v -6.000000 0.009559 -1.590044
v -5.551235 -0.107603 -1.528910
v -5.410995 -0.127713 -1.358100
v -5.290179 -0.127713 -1.088142
v -5.630517 -0.127713 0.711638
v -6.000000 -0.047468 -1.326181
v -6.000000 -0.047468 -1.012647
v -6.000000 -0.047468 -0.316105
v -6.000000 -0.047468 0.736871
v -6.448764 -0.107603 -1.528910
v -6.538108 -0.127713 0.046761
v -6.589005 -0.127713 -1.358100
v -6.709821 -0.127713 -1.088142
v -6.605787 -0.127713 -0.341051
v -6.369483 -0.127713 0.711638
v -6.000000 0.127713 0.046761
v -6.000000 0.127713 -0.316105
v -5.598067 -0.013326 0.757506
v -6.000000 -0.013325 1.590044
v -6.000000 0.127713 0.736871
v -5.320358 -0.013326 -1.358100
v -6.000000 0.127713 -1.326181
v -5.551235 -0.013326 -1.528910
v -6.000000 0.075253 -1.590044
v -6.000000 0.127713 -1.012647
v -6.699008 -0.013326 -0.341051
v -6.620914 -0.013326 0.046761
v -6.426340 -0.013326 0.711638
v -6.448764 -0.013326 -1.528910
v -6.679642 -0.013326 -1.358100
v -6.819050 -0.013326 -1.088142
v -6.149029 -0.064316 -0.478197
v -6.144042 -0.063752 -0.853096
v -6.488337 -0.102675 -0.847245
v -6.491030 -0.110062 -0.468397
v -6.380761 -0.104249 0.248555
v -6.319531 -0.111718 0.623220
v -6.087143 -0.060463 0.625112
v -6.099259 -0.062270 0.227303
v -6.195506 -0.160564 -0.853096
v -6.416495 -0.199487 -0.847245
v -6.220206 -0.220548 -0.464350
v -6.319530 -0.233834 -0.454924
v -6.158985 -0.157275 0.625112
v -6.205752 -0.219954 0.214265
v -6.308146 -0.208530 0.623220
v -6.287506 -0.232145 0.234707
v -6.195506 -0.107318 -0.853096
v -6.220206 -0.198216 -0.464350
v -6.319530 -0.211501 -0.454924
v -6.416495 -0.146241 -0.847245
v -6.158985 -0.104029 0.625112
v -6.308146 -0.155284 0.623220
v -6.287506 -0.209813 0.234707
v -6.205752 -0.197622 0.214265
v -5.290262 -0.127713 -1.087545
v -5.289529 -0.127033 -1.088142
v -5.271342 0.002240 -1.079810
v -5.782670 -0.079878 0.046761
v -5.766384 -0.051433 -1.558219
v -5.793680 -0.092277 1.099540
v -5.767363 -0.079162 -1.338788
v -5.771008 -0.073356 -1.037002
v -5.778712 -0.076781 -0.325218
v -5.789456 -0.093195 0.722492
v -5.791053 0.080252 0.046761
v -5.787188 0.084774 -0.323700
v -5.798651 -0.013326 1.175197
v -5.797542 0.060738 0.724888
v -5.775781 0.081184 -1.336711
v -5.770640 0.029981 -1.558799
v -5.779593 0.089760 -1.032963
v -5.785055 0.090700 -0.544307
v -5.776021 -0.072792 -0.587102
v -5.556643 -0.127713 0.420357
v -5.511445 -0.013326 0.499043
v -5.792406 0.076184 0.188106
v -5.783836 -0.082167 0.162950
v -5.541713 -0.099278 -1.061390
v -5.771799 -0.077697 -0.325502
v -5.769800 0.081266 -0.324320
v -6.000000 0.127713 0.413110
v -6.100009 0.094629 0.730952
v -6.225276 -0.013326 1.125898
v -5.541537 0.048767 -1.054905
v -5.649088 -0.087143 -0.717871
v -5.660424 0.069239 -0.674224
v -5.787782 0.084079 -0.266758
v -5.778953 -0.076969 -0.302620
v -5.885681 0.101746 0.046761
v -5.759801 -0.083288 0.046761
v -5.776874 0.077031 0.046761
v -5.882910 0.104088 -0.320284
v -5.790560 0.080829 -0.000498
v -5.600962 -0.127713 0.595106
v -5.707914 0.049267 0.281612
v -5.698154 -0.099344 0.260027
v -5.781851 -0.079237 -0.030164
v -5.829229 0.091559 -0.134024
v -5.821202 -0.072016 -0.167446
v -6.000000 -0.047468 -0.519643
v -5.558224 -0.013326 0.658891
v -5.547849 0.033883 -1.347416
v -5.905870 0.106332 0.111459
v -6.000000 0.127713 -0.540213
v -6.736851 -0.013326 -0.576572
v -6.641257 -0.127713 -0.595771
v -6.000000 -0.047468 -0.137584
v -6.572491 -0.127713 -0.150258
v -6.660587 -0.013326 -0.150258
v -6.000000 0.127713 -0.137584
vt 0.767185 0.772567
vt 0.756114 0.651382
vt 0.775620 0.670074
vt 0.775620 0.772567
vt 0.775620 0.566878
vt 0.747359 0.555546
vt 0.747359 0.526755
vt 0.775620 0.542514
vt 0.747359 0.483582
vt 0.775620 0.503022
vt 0.754368 0.443970
vt 0.791084 0.449303
vt 0.758335 0.391280
vt 0.797944 0.391280
vt 0.759336 0.372275
vt 0.798882 0.379604
vt 0.759896 0.304961
vt 0.799685 0.313822
vt 0.759717 0.299308
vt 0.798990 0.299600
vt 0.757383 0.202369
vt 0.796019 0.213152
vt 0.747359 0.111036
vt 0.747527 0.110889
vt 0.779466 0.112947
vt 0.747359 0.110889
vt 0.747359 0.044193
vt 0.775620 0.044193
vt 0.752328 0.001992
vt 0.775620 0.001992
vt 0.835175 0.116665
vt 0.835175 0.219013
vt 0.806914 0.219013
vt 0.826739 0.001992
vt 0.835175 0.001992
vt 0.835175 0.383278
vt 0.806914 0.383278
vt 0.835175 0.431954
vt 0.806914 0.431954
vt 0.806914 0.479092
vt 0.835175 0.479092
vt 0.835175 0.537280
vt 0.806914 0.542024
vt 0.835175 0.663670
vt 0.806914 0.663670
vt 0.806914 0.730366
vt 0.835175 0.730366
vt 0.811882 0.772567
vt 0.835175 0.772567
vt 0.912556 0.370897
vt 0.890098 0.466941
vt 0.884581 0.466941
vt 0.899401 0.370897
vt 0.923319 0.370897
vt 0.923180 0.463520
vt 0.890245 0.634601
vt 0.884728 0.634601
vt 0.913368 0.736106
vt 0.900213 0.736106
vt 0.923685 0.637822
vt 0.924132 0.736106
vt 0.854981 0.734193
vt 0.846495 0.637265
vt 0.852013 0.637265
vt 0.868136 0.734193
vt 0.846912 0.466884
vt 0.852430 0.466884
vt 0.877074 0.640594
vt 0.878900 0.734193
vt 0.865902 0.370897
vt 0.852747 0.370897
vt 0.876665 0.370897
vt 0.878511 0.463462
vt 0.204201 0.472929
vt 0.204201 0.428823
vt 0.246392 0.427944
vt 0.233129 0.473961
vt 0.031502 0.479092
vt 0.040995 0.431954
vt 0.204201 0.383278
vt 0.232444 0.383278
vt 0.256632 0.460737
vt 0.256778 0.474805
vt 0.257305 0.529309
vt 0.204201 0.528297
vt 0.050796 0.383278
vt 0.022153 0.537280
vt 0.227457 0.367294
vt 0.255945 0.394954
vt 0.255823 0.383278
vt 0.261074 0.474959
vt 0.258655 0.650037
vt 0.204201 0.645018
vt 0.098868 0.219013
vt 0.179492 0.214241
vt 0.204201 0.292768
vt 0.001845 0.663670
vt 0.255489 0.348358
vt 0.259327 0.383278
vt 0.288097 0.561407
vt 0.317469 0.655458
vt 0.259597 0.725082
vt 0.204201 0.722480
vt 0.148544 0.116665
vt 0.204201 0.212779
vt 0.036287 0.730366
vt 0.254220 0.215739
vt 0.276364 0.325256
vt 0.384224 0.661611
vt 0.315910 0.727727
vt 0.260867 0.779951
vt 0.204201 0.787671
vt 0.204201 0.001992
vt 0.093328 0.772567
vt 0.253946 0.104485
vt 0.303503 0.207681
vt 0.313347 0.232045
vt 0.372114 0.730366
vt 0.315073 0.772567
vt 0.324904 0.271537
vt 0.565402 0.787671
vt 0.565402 0.576884
vt 0.617419 0.573332
vt 0.616376 0.666486
vt 0.474117 0.570650
vt 0.619096 0.406384
vt 0.618808 0.435090
vt 0.565402 0.406384
vt 0.656687 0.570650
vt 0.486458 0.548805
vt 0.543872 0.549273
vt 0.624746 0.406384
vt 0.639977 0.459074
vt 0.663989 0.541859
vt 0.540879 0.450989
vt 0.609576 0.353462
vt 0.619298 0.387379
vt 0.432456 0.406384
vt 0.471330 0.456240
vt 0.674939 0.498686
vt 0.565402 0.360840
vt 0.620014 0.320065
vt 0.423961 0.357708
vt 0.565402 0.316734
vt 0.620074 0.314482
vt 0.415735 0.310571
vt 0.565402 0.266447
vt 0.620739 0.249781
vt 0.621782 0.314412
vt 0.444087 0.279108
vt 0.528583 0.276687
vt 0.565402 0.144645
vt 0.621977 0.138628
vt 0.652099 0.217473
vt 0.406971 0.247639
vt 0.529814 0.184064
vt 0.565402 0.067183
vt 0.622878 0.064068
vt 0.678627 0.132602
vt 0.390032 0.125993
vt 0.444753 0.185509
vt 0.419881 0.059297
vt 0.565402 0.001992
vt 0.623119 0.009855
vt 0.710923 0.059297
vt 0.740772 0.125993
vt 0.740751 0.126141
vt 0.454529 0.017096
vt 0.676275 0.017096
vt 0.841203 0.003438
vt 0.895801 0.001992
vt 0.889698 0.098036
vt 0.865159 0.100365
vt 0.893269 0.265696
vt 0.873071 0.270747
vt 0.904824 0.367201
vt 0.867972 0.366733
vt 0.789956 0.781313
vt 0.786385 0.948973
vt 0.761846 0.946644
vt 0.769758 0.776263
vt 0.840814 0.776263
vt 0.826936 0.829418
vt 0.806822 0.830469
vt 0.817522 0.776263
vt 0.811868 0.887135
vt 0.795637 0.887135
vt 0.840814 0.998008
vt 0.817522 0.998008
vt 0.743010 0.858680
vt 0.733394 0.804082
vt 0.746549 0.804082
vt 0.756165 0.858680
vt 0.732246 0.876429
vt 0.722630 0.791367
vt 0.622007 0.809116
vt 0.609344 0.845968
vt 0.596189 0.845968
vt 0.608852 0.809116
vt 0.632770 0.791367
vt 0.620108 0.848781
vt 0.683867 0.808952
vt 0.716949 0.791367
vt 0.705647 0.875862
vt 0.680585 0.833491
vt 0.648823 0.860915
vt 0.638452 0.791367
vt 0.671892 0.817677
vt 0.674904 0.837875
vn 0.189916 0.981774 0.007252
vn 0.208015 0.978115 0.004661
vn 0.210445 0.977581 0.006996
vn 0.190913 0.981563 0.009317
vn 0.318532 0.935220 0.154602
vn 0.318708 0.935161 0.154592
vn 0.303539 0.948757 0.087893
vn 0.302803 0.948321 0.094858
vn 0.194165 0.976386 -0.094716
vn 0.193308 0.975216 -0.107639
vn 0.202950 0.955353 -0.214738
vn 0.203137 0.958041 -0.202221
vn 0.175665 0.984439 -0.004620
vn 0.176299 0.984275 -0.011039
vn 0.265133 0.964103 0.014513
vn 0.215598 0.976475 0.003848
vn 0.279720 0.959934 0.016864
vn -0.197173 0.980206 0.017858
vn -0.208557 0.977769 0.021696
vn -0.209402 0.977587 0.021784
vn -0.197956 0.980041 0.018260
vn -0.318535 0.935218 0.154602
vn -0.318411 0.938037 0.136749
vn -0.279694 0.957058 0.076236
vn -0.318535 0.935219 0.154602
vn -0.188654 0.976492 -0.104278
vn -0.199955 0.954463 -0.221402
vn -0.199955 0.954463 -0.221402
vn -0.185228 0.979967 -0.073180
vn -0.180295 0.983600 -0.005036
vn -0.180301 0.983598 -0.005179
vn -0.183828 0.982840 0.015283
vn -0.182911 0.983012 0.015221
vn -0.264570 0.963005 0.051224
vn -0.258419 0.965243 0.039049
vn -0.246837 0.968431 0.034824
vn -0.244071 0.969170 0.033735
vn -0.212235 -0.977219 0.000000
vn -0.195785 -0.980632 -0.005356
vn -0.195319 -0.980695 -0.009356
vn -0.212235 -0.977219 0.000000
vn -0.150967 -0.986077 -0.069720
vn -0.185383 -0.967831 -0.170107
vn -0.182852 -0.975778 -0.120090
vn -0.148702 -0.988195 -0.036854
vn -0.116301 -0.993209 0.003177
vn -0.117715 -0.993006 0.009092
vn -0.174678 -0.984565 -0.010975
vn -0.180606 -0.983473 -0.012703
vn -0.175404 -0.984446 -0.009969
vn 0.133517 -0.990961 -0.013010
vn 0.139253 -0.990177 -0.012555
vn 0.138719 -0.990253 -0.012507
vn 0.134229 -0.990848 -0.014278
vn 0.205694 -0.978607 -0.004331
vn 0.212235 -0.977219 0.000000
vn 0.213234 -0.976875 -0.015726
vn 0.143227 -0.989369 -0.025200
vn 0.134542 -0.990891 -0.005874
vn 0.182536 -0.976521 -0.114402
vn 0.182536 -0.976521 -0.114402
vn 0.117788 -0.992901 0.016522
vn 0.120328 -0.992630 0.014362
vn 0.132039 -0.991074 -0.018387
vn 0.132039 -0.991074 -0.018386
vn 0.149652 -0.988658 -0.012663
vn 0.176629 -0.984002 -0.023306
vn 0.215480 -0.974978 -0.054650
vn 0.881956 -0.234684 0.408750
vn 0.849229 -0.346179 0.398712
vn 0.868382 -0.286412 0.404821
vn 0.881956 -0.234684 0.408750
vn 0.642156 -0.278932 -0.714026
vn 0.642156 -0.278932 -0.714026
vn 0.642156 -0.278932 -0.714026
vn 0.642156 -0.278932 -0.714026
vn 0.134983 -0.000001 -0.990848
vn 0.134982 -0.000001 -0.990848
vn 0.134982 -0.000001 -0.990848
vn 0.134983 -0.000001 -0.990848
vn 0.883615 -0.386894 -0.263701
vn 0.883615 -0.386894 -0.263701
vn 0.883615 -0.386894 -0.263701
vn 0.883615 -0.386894 -0.263701
vn 0.883615 -0.386894 -0.263701
vn 0.864650 -0.417847 0.278900
vn 0.864650 -0.417847 0.278900
vn 0.855221 -0.456723 0.244950
vn 0.858343 -0.445013 0.255364
vn -0.775343 -0.614499 0.145720
vn -0.784465 -0.602394 0.147435
vn -0.783252 -0.604025 0.147207
vn -0.775343 -0.614499 0.145720
vn -0.855021 -0.327290 0.402268
vn -0.855021 -0.327290 0.402268
vn -0.855021 -0.327290 0.402268
vn -0.855022 -0.327290 0.402268
vn -0.855021 -0.327290 0.402268
vn -0.134982 0.000000 -0.990848
vn -0.134982 0.000000 -0.990848
vn -0.134982 0.000000 -0.990848
vn -0.134982 0.000000 -0.990848
vn -0.642155 -0.278931 -0.714026
vn -0.642155 -0.278931 -0.714026
vn -0.642155 -0.278931 -0.714026
vn -0.642155 -0.278931 -0.714026
vn -0.707898 -0.618442 -0.341187
vn -0.707899 -0.618442 -0.341187
vn -0.707899 -0.618442 -0.341187
vn -0.707898 -0.618442 -0.341187
vn -0.761520 -0.638058 0.113882
vn -0.744386 -0.658353 0.111629
vn -0.743927 -0.658881 0.111569
vn -0.761520 -0.638058 0.113882
vn -0.831236 -0.507446 0.227037
vn -0.831236 -0.507446 0.227037
vn -0.831236 -0.507446 0.227037
vn -0.831236 -0.507446 0.227037
vn 0.112335 -0.993670 -0.000000
vn 0.120774 -0.992649 -0.007865
vn 0.124472 -0.992159 -0.011317
vn 0.112335 -0.993670 -0.000000
vn 0.144882 -0.989418 -0.007779
vn 0.147494 -0.989063 0.000000
vn 0.171293 -0.985036 -0.019026
vn 0.153294 -0.979264 -0.132451
vn 0.153294 -0.979264 -0.132451
vn 0.153294 -0.979264 -0.132451
vn 0.153294 -0.979264 -0.132451
vn 0.270810 -0.957977 0.094567
vn 0.270810 -0.957977 0.094567
vn 0.270810 -0.957977 0.094567
vn 0.270810 -0.957977 0.094567
vn -0.022620 -0.002813 -0.999740
vn -0.022176 -0.003137 -0.999749
vn -0.026468 0.000000 -0.999650
vn -0.026468 0.000000 -0.999650
vn 0.886668 -0.462149 -0.015426
vn 0.920074 -0.391739 -0.002370
vn 0.997988 0.000000 0.063410
vn 0.997988 0.000000 0.063410
vn -0.970788 0.000000 0.239937
vn -0.970789 0.000000 0.239937
vn -0.722152 -0.688913 0.062410
vn -0.641122 -0.766881 0.029245
vn 0.850932 -0.525106 -0.013378
vn 0.798762 -0.601628 0.004726
vn 0.993584 0.000000 -0.113101
vn 0.993584 0.000000 -0.113101
vn -0.012355 0.005648 0.999908
vn -0.012487 0.003392 0.999916
vn -0.012686 0.000000 0.999920
vn -0.012686 0.000000 0.999920
vn -0.894820 -0.444024 0.046265
vn -0.919224 -0.392261 0.034034
vn -0.998592 0.000000 -0.053049
vn -0.998592 0.000000 -0.053049
vn 0.820797 -0.570062 -0.036368
vn 0.820797 -0.570062 -0.036368
vn 0.026301 0.126331 0.991639
vn 0.026301 0.126331 0.991639
vn 0.026301 0.126331 0.991639
vn 0.026301 0.126331 0.991639
vn -0.511058 -0.859348 -0.018481
vn -0.511058 -0.859348 -0.018481
vn -0.020052 -0.004690 -0.999788
vn -0.020052 -0.004690 -0.999788
vn -0.012191 0.008458 0.999890
vn -0.012191 0.008458 0.999890
vn -0.812584 -0.577489 0.078829
vn -0.812584 -0.577489 0.078829
vn -0.130454 0.117035 -0.984523
vn -0.130454 0.117035 -0.984523
vn -0.130454 0.117035 -0.984523
vn -0.130454 0.117035 -0.984523
vn 0.706733 -0.706760 0.031916
vn 0.706733 -0.706760 0.031916
vn 0.999773 0.000000 -0.021294
vn 0.999773 0.000000 -0.021294
vn 0.999773 0.000000 -0.021294
vn 0.999773 0.000000 -0.021294
vn -0.138829 0.990312 0.003064
vn -0.138829 0.990312 0.003064
vn -0.138829 0.990312 0.003064
vn -0.138829 0.990312 0.003064
vn -0.998924 0.000000 0.046387
vn -0.998924 0.000000 0.046387
vn -0.998924 0.000000 0.046387
vn -0.998924 0.000000 0.046387
vn 0.138827 -0.990312 -0.003064
vn 0.138827 -0.990312 -0.003064
vn 0.138827 -0.990312 -0.003064
vn 0.138827 -0.990312 -0.003064
vn -0.116366 -0.993200 -0.003647
vn -0.116902 -0.993136 -0.003819
vn 0.720036 -0.686613 0.100552
vn 0.720036 -0.686613 0.100552
vn 0.720036 -0.686613 0.100552
vn 0.199032 0.979721 0.023101
vn 0.201809 0.979377 0.009724
vn 0.198244 0.979753 0.028002
vn 0.305865 0.948864 0.078132
vn 0.187538 0.975455 -0.115400
vn 0.199126 0.951340 -0.235163
vn 0.176293 0.983896 -0.029495
vn 0.175164 0.984525 0.005362
vn 0.170679 0.985326 0.000964
vn 0.236974 0.971251 0.022706
vn 0.281684 0.959202 0.024190
vn 0.296533 0.953828 0.047754
vn 0.260713 0.964819 0.033972
vn -0.147472 -0.989018 -0.009771
vn -0.163667 -0.986235 -0.023507
vn -0.195527 -0.980442 -0.022431
vn -0.137574 -0.990468 0.006870
vn -0.178989 -0.982225 -0.056538
vn -0.117427 -0.992908 0.018551
vn -0.110084 -0.993693 0.021375
vn -0.113038 -0.993590 -0.000688
vn -0.189657 -0.981443 -0.028292
vn -0.189738 -0.981423 -0.028449
vn 0.841097 -0.368443 0.395986
vn 0.841097 -0.368443 0.395986
vn 0.134981 -0.000001 -0.990848
vn 0.134981 -0.000001 -0.990848
vn -0.126197 -0.991955 -0.009940
vn -0.129258 -0.991474 -0.016484
vn 0.294750 0.954333 0.048685
vn 0.177398 0.982736 -0.052540
vn -0.132435 -0.991175 -0.005732
vn -0.112376 -0.993666 -0.000054
vn 0.221484 0.975060 0.014214
vn -0.153753 -0.987339 -0.038995
vn -0.140205 -0.990105 -0.005839
vn 0.219456 0.975566 0.010483
vn -0.136016 -0.990707 0.000000
vn -0.126079 -0.991991 -0.007554
vn 0.850959 -0.471370 0.231686
vn 0.850959 -0.471370 0.231686
vn 0.233420 0.969974 0.068310
vn 0.180744 0.979394 -0.090105
vn 0.172416 0.985021 0.002635
vn -0.735845 -0.668073 0.110502
vn -0.735845 -0.668073 0.110502
vn 0.876192 0.125147 -0.465432
vn 0.881495 0.124068 -0.455603
vn 0.754457 0.142601 -0.640671
vn 0.754457 0.142601 -0.640671
vn 0.811829 -0.101631 0.574983
vn 0.702175 -0.143731 0.697346
vn 0.702175 -0.143731 0.697346
vn 0.702175 -0.143731 0.697346
vn 0.867426 -0.074432 0.491968
vn 0.954220 -0.014218 0.298768
vn 0.954220 -0.014218 0.298768
vn 0.998136 0.045720 0.040429
vn 0.997296 0.041112 0.060916
vn 0.996641 0.063754 -0.051394
vn 0.997487 0.060966 -0.036105
vn 0.957683 0.101993 -0.269148
vn 0.957683 0.101993 -0.269148
vn -0.792211 -0.591805 0.148891
vn -0.792211 -0.591805 0.148891
s 1
g broken_sheild_1
usemtl initialShadingGroup
f 19/74/1 113/75/2 101/76/3 95/77/4
f 21/113/5 70/115/6 71/107/7 22/105/8
f 24/103/9 72/102/10 73/111/11 26/112/12
f 27/93/13 74/92/14 72/102/10 24/103/9
f 106/88/15 18/80/16 84/96/17
s 5
f 28/78/18 112/79/19 113/75/20 19/74/21
f 21/113/22 22/105/23 85/95/24 86/104/25
f 24/103/26 26/112/27 31/114/28 32/106/29
f 27/93/30 24/103/26 32/106/29 33/97/31
f 19/74/21 107/85/32 108/87/33 28/78/18
f 30/94/34 85/95/24 84/96/35 18/80/36 29/86/37
s 8
f 1/121/38 11/122/39 67/123/40 63/124/41
f 8/157/42 3/163/43 62/164/44 64/158/45
f 9/152/46 8/157/42 64/158/45 65/153/47
f 61/126/48 80/127/49 67/123/40 11/122/39 2/128/50
s 10
f 10/144/51 110/141/52 111/143/53 16/146/54
f 11/122/55 1/121/56 17/125/57
f 8/157/58 14/162/59 12/168/60 3/163/61
f 9/152/62 15/160/63 14/162/59 8/157/58
f 109/155/64 37/150/65 16/146/54
f 17/125/57 13/138/66 38/139/67 39/130/68
s 15
f 1/1/69 63/2/70 70/3/71 21/4/72
s off
f 23/28/73 5/27/74 4/29/75 25/30/76
s 16
f 4/182/77 62/183/78 73/184/79 25/185/80
s off
f 6/26/81 5/27/82 23/28/83 60/25/84 59/24/85
s 17
f 20/5/86 7/6/87 97/7/88 104/8/89
s 18
f 16/40/90 111/39/91 112/38/92 28/41/93
s off
f 86/31/94 30/32/95 17/33/96 1/34/97 21/35/98
f 3/186/99 12/188/100 31/189/101 26/187/102
f 12/48/103 14/46/104 32/47/105 31/49/106
f 14/46/107 15/45/108 33/44/109 32/47/110
s 19
f 28/41/111 108/42/112 109/43/113 16/40/114
s off
f 30/32/115 29/36/116 13/37/117 17/33/118
s 10
f 9/152/62 35/156/119 36/161/120 15/160/63
f 34/151/121 103/147/122 10/144/51
f 10/144/51 16/146/54 37/150/65 34/151/121
f 2/128/123 41/135/124 38/139/67 13/138/66
f 40/131/125 41/135/124 2/128/123 11/122/55
f 11/122/55 17/125/57 39/130/68 40/131/125
s off
f 43/170/126 42/171/127 44/172/128 45/173/129
f 47/174/130 46/176/131 48/177/132 49/175/133
s 20
f 53/190/134 50/191/135 42/192/136 43/193/137
s 21
f 50/50/138 51/51/139 44/52/140 42/53/141
s 22
f 43/62/142 45/63/143 52/64/144 53/65/145
s 23
f 57/56/146 54/58/147 46/59/148 47/57/149
s 24
f 54/196/150 55/197/151 48/198/152 46/199/153
s 25
f 55/70/154 56/67/155 49/66/156 48/71/157
s 21
f 35/54/158 34/55/159 51/51/139 50/50/138
s off
f 51/202/160 34/203/161 37/204/162 52/205/163
s 22
f 53/65/145 52/64/144 37/68/164 36/69/165
s 20
f 36/194/166 35/195/167 50/191/135 53/190/134
s 24
f 40/200/168 39/201/169 55/197/151 54/196/150
s 25
f 39/72/170 38/73/171 56/67/155 55/70/154
s off
f 38/206/172 41/207/173 57/208/174 56/209/175
s 23
f 41/60/176 40/61/177 54/58/147 57/56/146
s off
f 44/52/178 51/51/179 57/56/180 47/57/181
f 57/178/182 51/179/183 52/180/184 56/181/185
f 52/64/186 45/63/187 49/66/188 56/67/189
f 44/172/190 47/174/191 49/175/192 45/173/193
s 8
f 76/148/194 103/147/195 9/152/46 65/153/47
s off
f 59/24/196 58/23/197 6/26/198
s 1
f 69/83/199 90/82/200 83/91/201
f 71/107/7 70/115/6 20/116/202
f 105/110/203 25/119/204 73/111/11 72/102/10
f 87/101/205 105/110/203 72/102/10 74/92/14
f 74/92/14 75/84/206 89/100/207 87/101/205
f 68/90/208 79/98/209 98/108/210 94/99/211
s 8
f 61/126/48 100/137/212 93/132/213
f 63/124/41 67/123/40 7/129/214
f 5/165/215 64/158/45 62/164/44 4/169/216
f 81/159/217 5/165/215 6/166/218
f 76/148/194 65/153/47 81/159/217 88/154/219
f 67/123/40 80/127/49 99/133/220 97/134/221 7/129/214
s 15
f 20/5/222 70/3/71 63/2/70 7/6/223
s 16
f 73/184/79 62/183/78 3/186/224 26/187/225
s 1
f 95/77/4 69/83/199 75/84/206
s 8
f 66/145/226 76/148/194 88/154/219 82/149/227
s 1
f 20/116/202 104/117/228 98/108/210 79/98/209 71/107/7
f 84/96/17 22/105/8 71/107/7 79/98/209 106/88/15
s 5
f 86/104/25 85/95/24 30/94/34
f 84/96/35 85/95/24 22/105/23
s 1
f 83/91/201 89/100/207 75/84/206 69/83/199
f 87/101/205 89/100/207 60/109/229
s 8
f 82/149/227 91/142/230 66/145/226
f 88/154/219 81/159/217 6/166/218 58/167/231
s 1
f 90/82/200 101/76/3 96/89/232
s 8
f 97/134/221 99/133/220 77/140/233
s 1
f 95/77/4 101/76/3 90/82/200 69/83/199
s 8
f 100/137/212 102/136/234 91/142/230
f 93/132/213 99/133/220 80/127/49 61/126/48
s 1
f 94/99/211 96/89/232 68/90/208
f 96/89/232 101/76/3 92/81/235 68/90/208
s 8
f 102/136/234 110/141/236 10/144/237
f 102/136/234 10/144/237 66/145/226 91/142/230
f 61/126/48 2/128/50 102/136/234 100/137/212
f 10/144/237 103/147/195 76/148/194 66/145/226
s 10
f 34/151/121 35/156/119 9/152/62 103/147/122
s 8
f 81/159/217 65/153/47 64/158/45 5/165/215
s 17
f 104/8/89 97/7/88 77/9/238 78/10/239
s 1
f 78/120/240 98/108/210 104/117/228
f 23/118/241 105/110/203 87/101/205 60/109/229
f 23/118/241 25/119/204 105/110/203
f 106/88/15 79/98/209 68/90/208 92/81/235
f 92/81/235 18/80/16 106/88/15
f 95/77/4 75/84/206 107/85/242 19/74/1
f 107/85/242 75/84/206 74/92/14 27/93/13
s 5
f 108/87/33 107/85/32 27/93/30 33/97/31
s 19
f 109/43/113 108/42/112 33/44/243 15/45/244
s 10
f 15/160/63 36/161/120 37/150/65 109/155/64
s 28
f 99/11/245 98/12/246 78/10/247 77/9/248
f 88/21/249 58/23/250 59/24/251 60/25/252 89/22/253
f 88/21/249 89/22/253 83/20/254 82/19/255
f 82/19/255 83/20/254 90/18/256 91/17/257
f 91/17/257 90/18/256 96/16/258 100/15/259
f 100/15/259 96/16/258 94/14/260 93/13/261
f 93/13/261 94/14/260 98/12/246 99/11/245
s 10
f 111/143/53 110/141/52 2/128/123 13/138/66
s 18
f 112/38/92 111/39/91 13/37/262 29/36/263
s 5
f 113/75/20 112/79/19 29/86/37 18/80/36
s 1
f 101/76/3 113/75/2 18/80/16 92/81/235
s 8
f 102/136/234 2/128/50 110/141/236
