# This file uses centimeters as units for non-parametric coordinates.

mtllib MDL_stairs moduler step.mtl
g default
v -3.000000 0.000000 9.000000
v -3.000000 1.170613 9.000000
v -3.000000 0.000000 7.999767
v -3.000000 1.170613 7.999767
v 0.000000 0.000000 9.000000
v 0.000000 1.170613 9.000000
v 0.000000 0.000000 7.999767
v 0.000000 1.170613 7.999767
vt 0.648890 0.267181
vt 0.559809 0.267181
vt 0.559809 -0.000000
vt 0.648890 -0.000000
vt 0.664549 0.534362
vt 0.575468 0.534362
vt 0.575468 0.267181
vt 0.664549 0.267181
vt 0.405691 0.606234
vt 0.301436 0.606234
vt 0.301436 0.339053
vt 0.405691 0.339053
vt 0.574025 0.582440
vt 0.469770 0.582440
vt 0.469770 0.315259
vt 0.574025 0.315259
vn 0.000000 0.000000 1.000000
vn 0.000000 0.000000 1.000000
vn 0.000000 0.000000 1.000000
vn 0.000000 0.000000 1.000000
vn 0.000000 -1.000000 0.000000
vn 0.000000 -1.000000 0.000000
vn 0.000000 -1.000000 0.000000
vn 0.000000 -1.000000 0.000000
vn 0.000000 0.000000 -1.000000
vn 0.000000 0.000000 -1.000000
vn 0.000000 0.000000 -1.000000
vn 0.000000 0.000000 -1.000000
vn 0.000000 1.000000 0.000000
vn 0.000000 1.000000 0.000000
vn 0.000000 1.000000 0.000000
vn 0.000000 1.000000 0.000000
s off
g moduler_stair
usemtl initialShadingGroup
f 2/9/1 1/10/2 5/11/3 6/12/4
f 1/1/5 3/2/6 7/3/7 5/4/8
f 3/13/9 4/14/10 8/15/11 7/16/12
f 4/5/13 2/6/14 6/7/15 8/8/16
