# This file uses centimeters as units for non-parametric coordinates.

mtllib MDL_stairs lip 3.mtl
g default
v -6.000000 0.000000 9.000000
v -6.000000 0.000000 8.000000
v -6.000000 1.170613 8.000000
v -6.000000 1.170613 9.000000
v -7.000000 0.000000 10.000000
v -7.000000 1.170613 9.000000
v -6.000000 0.000000 10.000000
v -7.000000 0.000000 9.000000
v -7.000000 0.000000 8.000000
v -7.000000 1.170613 8.000000
vt 0.359178 0.757588
vt 0.359178 0.861843
vt 0.270118 0.757588
vt 0.374373 0.757588
vt 0.270118 0.757588
vt 0.270118 0.668528
vt 0.374373 0.668528
vt 0.270118 0.579467
vt 0.856351 0.394237
vt 0.856351 0.483297
vt 0.767291 0.483297
vt 0.767291 0.394237
vt 0.856351 0.572357
vt 0.767291 0.572357
vt 0.828948 0.137116
vt 0.828948 0.226177
vt 0.739887 0.226177
vt 0.739887 0.137116
vt 0.739887 0.000000
vt 0.828948 0.000000
vt 0.378752 0.000000
vt 0.378752 0.104255
vt 0.289691 0.104255
vt 0.289691 0.000000
vn 0.000000 0.649524 0.760341
vn 0.000000 0.649524 0.760341
vn 0.000000 0.649524 0.760341
vn 0.000000 0.649524 0.760341
vn 1.000000 0.000000 0.000000
vn 1.000000 0.000000 0.000000
vn 1.000000 0.000000 0.000000
vn 0.000000 -1.000000 0.000000
vn 0.000000 -1.000000 0.000000
vn 0.000000 -1.000000 0.000000
vn 0.000000 -1.000000 0.000000
vn 0.000000 0.000000 -1.000000
vn 0.000000 0.000000 -1.000000
vn 0.000000 0.000000 -1.000000
vn 0.000000 0.000000 -1.000000
vn 0.000000 -1.000000 0.000000
vn 0.000000 -1.000000 0.000000
vn 0.000000 -1.000000 0.000000
vn 0.000000 -1.000000 0.000000
vn -1.000000 0.000000 0.000000
vn -1.000000 0.000000 0.000000
vn -1.000000 0.000000 0.000000
vn -1.000000 0.000000 0.000000
vn -1.000000 0.000000 0.000000
vn -1.000000 0.000000 0.000000
vn -1.000000 0.000000 0.000000
vn 0.000000 1.000000 0.000000
vn 0.000000 1.000000 0.000000
vn 0.000000 1.000000 0.000000
vn 0.000000 1.000000 0.000000
s off
g lip_3
usemtl initialShadingGroup
f 5/19/1 7/20/2 4/15/3 6/18/4
f 1/1/5 4/2/6 7/3/7
f 2/9/8 1/10/9 8/11/10 9/12/11
f 3/21/12 2/22/13 9/23/14 10/24/15
f 1/10/16 7/13/17 5/14/18 8/11/19
f 10/4/20 9/5/21 8/6/22 6/7/23
f 6/7/24 8/6/25 5/8/26
f 4/15/27 3/16/28 10/17/29 6/18/30
