# This file uses centimeters as units for non-parametric coordinates.

mtllib MDL_stairs lip 1.mtl
g default
v -10.382089 0.500000 10.000000
v -10.000000 0.500000 10.000000
v -10.382089 2.024091 6.951811
v -10.000000 2.024091 6.951811
v -10.382089 0.500000 6.961246
v -10.000000 0.500000 6.961246
v -10.382089 -0.000000 6.961246
v -10.000000 -0.000000 6.961246
v -10.000000 0.000000 10.000000
v -10.382089 0.000000 10.000000
v -10.274422 0.620155 9.943529
v -10.104243 0.620155 9.943529
v -10.274422 2.070550 10.668726
v -10.104243 2.070550 10.668726
v -10.274422 2.146656 10.516514
v -10.104243 2.146656 10.516514
v -10.274422 0.696260 9.791318
v -10.104243 0.696260 9.791318
v -10.274422 0.789498 9.604842
v -10.104243 0.789498 9.604842
v -10.274422 2.239893 10.330038
v -10.104243 2.239893 10.330038
v -10.274422 2.315999 10.177827
v -10.104243 2.315999 10.177827
v -10.274422 0.865604 9.452630
v -10.104243 0.865604 9.452630
v -10.274422 0.958842 9.266154
v -10.104243 0.958842 9.266154
v -10.274422 2.409237 9.991350
v -10.104243 2.409237 9.991350
v -10.274422 2.485343 9.839139
v -10.104243 2.485343 9.839139
v -10.274422 1.034947 9.113943
v -10.104243 1.034947 9.113943
v -10.274422 1.128185 8.927466
v -10.104243 1.128185 8.927466
v -10.274422 2.578581 9.652663
v -10.104243 2.578581 9.652663
v -10.274422 2.654687 9.500450
v -10.104243 2.654687 9.500450
v -10.274422 1.204291 8.775254
v -10.104243 1.204291 8.775254
v -10.378664 1.948232 10.724114
v -10.000000 1.948232 10.724114
v -10.378664 2.047666 10.773829
v -10.000000 2.047666 10.773829
v -10.378664 3.571757 7.725642
v -10.000000 3.571757 7.725642
v -10.378664 3.472322 7.675925
v -10.000000 3.472322 7.675925
v -10.274422 1.805559 7.572716
v -10.104243 1.805559 7.572716
v -10.274422 3.255954 8.297912
v -10.104243 3.255954 8.297912
v -10.274422 3.332060 8.145700
v -10.104243 3.332060 8.145700
v -10.274422 1.881665 7.420505
v -10.104243 1.881665 7.420505
v -10.378664 0.500000 10.000000
v -10.000000 0.500000 10.000000
v -10.378664 0.599434 10.049716
v -10.000000 0.599434 10.049716
v -10.378664 2.123524 7.001527
v -10.000000 2.123524 7.001527
v -10.378664 2.024091 6.951811
v -10.000000 2.024091 6.951811
v -10.274422 1.974902 7.234029
v -10.104243 1.974902 7.234029
v -10.274422 3.425298 7.959224
v -10.104243 3.425298 7.959224
v -10.274422 3.501404 7.807013
v -10.104243 3.501404 7.807013
v -10.274422 2.051008 7.081817
v -10.104243 2.051008 7.081817
v -10.290188 1.302209 8.579417
v -10.120009 1.302209 8.579417
v -10.290188 2.752605 9.304613
v -10.120009 2.752605 9.304613
v -10.290188 2.828711 9.152401
v -10.120009 2.828711 9.152401
v -10.290188 1.378315 8.427205
v -10.120009 1.378315 8.427205
v -10.290188 1.475414 8.233006
v -10.120009 1.475414 8.233006
v -10.290188 2.925810 8.958203
v -10.120009 2.925810 8.958203
v -10.290188 3.001916 8.805991
v -10.120009 3.001916 8.805991
v -10.290188 1.551520 8.080794
v -10.120009 1.551520 8.080794
v -10.286871 1.634929 7.913976
v -10.116693 1.634929 7.913976
v -10.286871 3.085325 8.639173
v -10.116693 3.085325 8.639173
v -10.286871 3.161431 8.486960
v -10.116693 3.161431 8.486960
v -10.286871 1.711035 7.761764
v -10.116693 1.711035 7.761764
vt 0.043905 0.261968
vt 0.043905 0.000000
vt 0.188327 0.000000
vt 0.000000 0.261968
vt 0.000000 0.000000
vt 0.231817 0.262756
vt 0.231817 0.000732
vt 0.376182 0.262756
vt 0.187908 0.262756
vt 0.187908 0.000732
vt 0.109613 0.849857
vt 0.124769 0.849857
vt 0.124769 0.994277
vt 0.109613 0.994277
vt 0.093954 0.849857
vt 0.109110 0.849857
vt 0.109110 0.994277
vt 0.093954 0.994277
vt 0.669422 0.801544
vt 0.684578 0.801544
vt 0.684578 0.945963
vt 0.669422 0.945963
vt 0.301436 0.812562
vt 0.316592 0.812562
vt 0.316592 0.956981
vt 0.301436 0.956981
vt 0.125272 0.849857
vt 0.140428 0.849857
vt 0.140428 0.994276
vt 0.125272 0.994276
vt 0.140931 0.849857
vt 0.156087 0.849857
vt 0.156087 0.994277
vt 0.140931 0.994277
vt 0.156590 0.057540
vt 0.171746 0.057540
vt 0.171746 0.201960
vt 0.156590 0.201960
vt 0.172249 0.029136
vt 0.187405 0.029136
vt 0.187405 0.173556
vt 0.172249 0.173556
vt 0.551980 0.885956
vt 0.551980 0.582440
vt 0.561880 0.582440
vt 0.561880 0.885956
vt 0.563724 0.885956
vt 0.563724 0.582440
vt 0.573625 0.582440
vt 0.573625 0.885956
vt 0.716399 0.801544
vt 0.731555 0.801544
vt 0.731555 0.945963
vt 0.716399 0.945963
vt 0.078295 0.849857
vt 0.093451 0.849857
vt 0.093451 0.994276
vt 0.078295 0.994276
vt 0.978687 0.303516
vt 0.978687 0.000000
vt 0.988588 0.000000
vt 0.988588 0.303516
vt 0.375816 0.909749
vt 0.375816 0.606234
vt 0.385717 0.606234
vt 0.385717 0.909749
vt 0.685081 0.801544
vt 0.700237 0.801544
vt 0.700237 0.945963
vt 0.685081 0.945963
vt 0.700740 0.801544
vt 0.715896 0.801544
vt 0.715896 0.945963
vt 0.700740 0.945963
vt 0.454111 0.000000
vt 0.469267 0.000000
vt 0.469267 0.144419
vt 0.454111 0.144419
vt 0.908222 0.303516
vt 0.923378 0.303516
vt 0.923378 0.447935
vt 0.908222 0.447935
vt 0.062636 0.819989
vt 0.077792 0.819989
vt 0.077792 0.964409
vt 0.062636 0.964409
vt 0.829927 0.000000
vt 0.845083 0.000000
vt 0.845083 0.144420
vt 0.829927 0.144420
vt 0.638104 0.801544
vt 0.653260 0.801544
vt 0.653260 0.945963
vt 0.638104 0.945963
vt 0.653763 0.801544
vt 0.668919 0.801544
vt 0.668919 0.945963
vt 0.653763 0.945963
vt 0.550776 0.582440
vt 0.550776 0.885956
vt 0.516747 0.885956
vt 0.516747 0.582440
vt 0.481514 0.729367
vt 0.515543 0.729367
vt 0.515543 1.000000
vt 0.481514 1.000000
vt 0.943454 0.607032
vt 0.977178 0.607032
vt 0.977178 0.910548
vt 0.943454 0.910548
vt 0.908222 0.000000
vt 0.941946 0.000000
vt 0.941946 0.303516
vt 0.908222 0.303516
vt 0.943454 0.303516
vt 0.977178 0.303516
vt 0.977178 0.607032
vt 0.943454 0.607032
vt 0.977178 0.303516
vt 0.943454 0.303516
vt 0.943454 0.000000
vt 0.977178 0.000000
vt 0.407134 0.339053
vt 0.441163 0.339053
vt 0.441163 0.474791
vt 0.407134 0.474791
vt 0.441163 0.519322
vt 0.407134 0.519322
vt 0.351124 0.148785
vt 0.317095 0.148785
vt 0.317095 0.104255
vt 0.351124 0.104255
vt 0.418878 0.783235
vt 0.434034 0.783235
vt 0.434034 0.927654
vt 0.418878 0.927654
vt 0.591127 0.801544
vt 0.606283 0.801544
vt 0.606283 0.945963
vt 0.591127 0.945963
vt 0.622445 0.801544
vt 0.637601 0.801544
vt 0.637601 0.945963
vt 0.622445 0.945963
vt 0.046977 0.819989
vt 0.062133 0.819989
vt 0.062133 0.964409
vt 0.046977 0.964409
vt 0.606786 0.801544
vt 0.621942 0.801544
vt 0.621942 0.945963
vt 0.606786 0.945963
vt 0.575468 0.801544
vt 0.590624 0.801544
vt 0.590624 0.945963
vt 0.575468 0.945963
vt 0.465855 0.742834
vt 0.481011 0.742834
vt 0.481011 0.887254
vt 0.465855 0.887254
vt 0.387560 0.606234
vt 0.402716 0.606234
vt 0.402716 0.750653
vt 0.387560 0.750653
vt 0.379731 0.101172
vt 0.379731 0.067448
vt 0.389631 0.067448
vt 0.389631 0.101172
vt 0.250544 0.033724
vt 0.250544 0.000000
vt 0.260445 0.000000
vt 0.260445 0.033724
vt 0.285777 0.794231
vt 0.300933 0.794231
vt 0.300933 0.938651
vt 0.285777 0.938651
vt 0.387560 0.750653
vt 0.402716 0.750653
vt 0.402716 0.895073
vt 0.387560 0.895073
vt 0.379731 0.033724
vt 0.379731 0.000000
vt 0.389631 0.000000
vt 0.389631 0.033724
vt 0.379731 0.067448
vt 0.379731 0.033724
vt 0.389631 0.033724
vt 0.389631 0.067448
vt 0.845586 0.000000
vt 0.860742 0.000000
vt 0.860742 0.144419
vt 0.845586 0.144419
vt 0.000000 0.819989
vt 0.015156 0.819989
vt 0.015156 0.964409
vt 0.000000 0.964409
vt 0.031318 0.819989
vt 0.046474 0.819989
vt 0.046474 0.964409
vt 0.031318 0.964409
vt 0.434537 0.769768
vt 0.449693 0.769768
vt 0.449693 0.914187
vt 0.434537 0.914187
vt 0.270118 0.775901
vt 0.285274 0.775901
vt 0.285274 0.920320
vt 0.270118 0.920320
vt 0.442367 0.339053
vt 0.457523 0.339053
vt 0.457523 0.483472
vt 0.442367 0.483472
vt 0.450196 0.756301
vt 0.465352 0.756301
vt 0.465352 0.900721
vt 0.450196 0.900721
vt 0.015659 0.819989
vt 0.030815 0.819989
vt 0.030815 0.964409
vt 0.015659 0.964409
vn 0.000000 0.894428 0.447213
vn 0.000000 0.894428 0.447213
vn 0.000000 0.894428 0.447213
vn 0.000000 0.894428 0.447213
vn 0.000000 -0.006191 -0.999981
vn 0.000000 -0.006191 -0.999981
vn 0.000000 -0.006191 -0.999981
vn 0.000000 -0.006191 -0.999981
vn 0.000000 -1.000000 0.000000
vn 0.000000 -1.000000 0.000000
vn 0.000000 -1.000000 0.000000
vn 0.000000 -1.000000 0.000000
vn 1.000000 0.000000 0.000000
vn 1.000000 0.000000 0.000000
vn 1.000000 0.000000 0.000000
vn -1.000000 0.000000 0.000000
vn -1.000000 0.000000 0.000000
vn -1.000000 0.000000 0.000000
vn 0.000000 0.000000 -1.000000
vn 0.000000 0.000000 -1.000000
vn 0.000000 0.000000 -1.000000
vn 0.000000 0.000000 -1.000000
vn 1.000000 0.000000 0.000000
vn 1.000000 0.000000 0.000000
vn 1.000000 0.000000 0.000000
vn 1.000000 0.000000 0.000000
vn 0.000000 0.000000 1.000000
vn 0.000000 0.000000 1.000000
vn 0.000000 0.000000 1.000000
vn 0.000000 0.000000 1.000000
vn -1.000000 0.000000 0.000000
vn -1.000000 0.000000 0.000000
vn -1.000000 0.000000 0.000000
vn -1.000000 0.000000 0.000000
vn 0.000000 -0.447214 0.894427
vn 0.000000 -0.447214 0.894427
vn 0.000000 -0.447214 0.894427
vn 0.000000 -0.447214 0.894427
vn 0.000000 0.447213 -0.894428
vn 0.000000 0.447213 -0.894428
vn 0.000000 0.447213 -0.894428
vn 0.000000 0.447213 -0.894428
vn 1.000000 0.000000 0.000000
vn 1.000000 0.000000 0.000000
vn 1.000000 0.000000 0.000000
vn 1.000000 0.000000 0.000000
vn -1.000000 0.000000 0.000000
vn -1.000000 0.000000 0.000000
vn -1.000000 0.000000 0.000000
vn -1.000000 0.000000 0.000000
vn 0.000000 -0.447213 0.894428
vn 0.000000 -0.447213 0.894428
vn 0.000000 -0.447213 0.894428
vn 0.000000 -0.447213 0.894428
vn 0.000000 0.447214 -0.894427
vn 0.000000 0.447214 -0.894427
vn 0.000000 0.447214 -0.894427
vn 0.000000 0.447214 -0.894427
vn 1.000000 0.000000 0.000000
vn 1.000000 0.000000 0.000000
vn 1.000000 0.000000 0.000000
vn 1.000000 0.000000 0.000000
vn -1.000000 0.000000 0.000000
vn -1.000000 0.000000 0.000000
vn -1.000000 0.000000 0.000000
vn -1.000000 0.000000 0.000000
vn 0.000000 -0.447213 0.894428
vn 0.000000 -0.447213 0.894428
vn 0.000000 -0.447213 0.894428
vn 0.000000 -0.447213 0.894428
vn 0.000000 0.447212 -0.894428
vn 0.000000 0.447212 -0.894428
vn 0.000000 0.447212 -0.894428
vn 0.000000 0.447212 -0.894428
vn 1.000000 0.000000 0.000000
vn 1.000000 0.000000 0.000000
vn 1.000000 0.000000 0.000000
vn 1.000000 0.000000 0.000000
vn -1.000000 0.000002 0.000000
vn -1.000000 0.000002 0.000000
vn -1.000000 0.000002 0.000000
vn -1.000000 0.000002 0.000000
vn 0.000000 -0.447214 0.894427
vn 0.000000 -0.447214 0.894427
vn 0.000000 -0.447214 0.894427
vn 0.000000 -0.447214 0.894427
vn 0.000000 0.447212 -0.894428
vn 0.000000 0.447212 -0.894428
vn 0.000000 0.447212 -0.894428
vn 0.000000 0.447212 -0.894428
vn 1.000000 0.000000 0.000000
vn 1.000000 0.000000 0.000000
vn 1.000000 0.000000 0.000000
vn 1.000000 0.000000 0.000000
vn -1.000000 0.000000 0.000000
vn -1.000000 0.000000 0.000000
vn -1.000000 0.000000 0.000000
vn -1.000000 0.000000 0.000000
vn 0.000000 -0.447200 0.894434
vn 0.000000 -0.447200 0.894434
vn 0.000000 -0.447200 0.894434
vn 0.000000 -0.447200 0.894434
vn 0.000000 0.894428 0.447213
vn 0.000000 0.894428 0.447213
vn 0.000000 0.894428 0.447213
vn 0.000000 0.894428 0.447213
vn 0.000000 0.447211 -0.894428
vn 0.000000 0.447211 -0.894428
vn 0.000000 0.447211 -0.894428
vn 0.000000 0.447211 -0.894428
vn 0.000000 -0.894428 -0.447212
vn 0.000000 -0.894428 -0.447212
vn 0.000000 -0.894428 -0.447212
vn 0.000000 -0.894428 -0.447212
vn 1.000000 0.000000 0.000000
vn 1.000000 0.000000 0.000000
vn 1.000000 0.000000 0.000000
vn 1.000000 0.000000 0.000000
vn -1.000000 -0.000001 0.000000
vn -1.000000 -0.000001 0.000000
vn -1.000000 -0.000001 0.000000
vn -1.000000 -0.000001 0.000000
vn 0.000000 -0.447213 0.894428
vn 0.000000 -0.447213 0.894428
vn 0.000000 -0.447213 0.894428
vn 0.000000 -0.447213 0.894428
vn 0.000000 0.447212 -0.894428
vn 0.000000 0.447212 -0.894428
vn 0.000000 0.447212 -0.894428
vn 0.000000 0.447212 -0.894428
vn 1.000000 0.000000 0.000000
vn 1.000000 0.000000 0.000000
vn 1.000000 0.000000 0.000000
vn 1.000000 0.000000 0.000000
vn -1.000000 0.000002 0.000000
vn -1.000000 0.000002 0.000000
vn -1.000000 0.000002 0.000000
vn -1.000000 0.000002 0.000000
vn 0.000000 -0.447207 0.894431
vn 0.000000 -0.447207 0.894431
vn 0.000000 -0.447207 0.894431
vn 0.000000 -0.447207 0.894431
vn 0.000000 0.894427 0.447213
vn 0.000000 0.894427 0.447213
vn 0.000000 0.894427 0.447213
vn 0.000000 0.894427 0.447213
vn 0.000000 0.447211 -0.894428
vn 0.000000 0.447211 -0.894428
vn 0.000000 0.447211 -0.894428
vn 0.000000 0.447211 -0.894428
vn 1.000000 0.000005 0.000000
vn 1.000000 0.000005 0.000000
vn 1.000000 0.000005 0.000000
vn 1.000000 0.000005 0.000000
vn -1.000000 0.000007 0.000000
vn -1.000000 0.000007 0.000000
vn -1.000000 0.000007 0.000000
vn -1.000000 0.000007 0.000000
vn 0.000000 -0.447212 0.894428
vn 0.000000 -0.447212 0.894428
vn 0.000000 -0.447212 0.894428
vn 0.000000 -0.447212 0.894428
vn 0.000000 0.447212 -0.894428
vn 0.000000 0.447212 -0.894428
vn 0.000000 0.447212 -0.894428
vn 0.000000 0.447212 -0.894428
vn 1.000000 0.000000 0.000000
vn 1.000000 0.000000 0.000000
vn 1.000000 0.000000 0.000000
vn 1.000000 0.000000 0.000000
vn -1.000000 0.000002 0.000000
vn -1.000000 0.000002 0.000000
vn -1.000000 0.000002 0.000000
vn -1.000000 0.000002 0.000000
vn 0.000000 -0.447212 0.894428
vn 0.000000 -0.447212 0.894428
vn 0.000000 -0.447212 0.894428
vn 0.000000 -0.447212 0.894428
vn 0.000000 0.447212 -0.894428
vn 0.000000 0.447212 -0.894428
vn 0.000000 0.447212 -0.894428
vn 0.000000 0.447212 -0.894428
vn 1.000000 0.000000 0.000000
vn 1.000000 0.000000 0.000000
vn 1.000000 0.000000 0.000000
vn 1.000000 0.000000 0.000000
vn -1.000000 -0.000002 0.000000
vn -1.000000 -0.000002 0.000000
vn -1.000000 -0.000002 0.000000
vn -1.000000 -0.000002 0.000000
vn 0.000000 -0.447214 0.894427
vn 0.000000 -0.447214 0.894427
vn 0.000000 -0.447214 0.894427
vn 0.000000 -0.447214 0.894427
vn 0.000000 0.447214 -0.894427
vn 0.000000 0.447214 -0.894427
vn 0.000000 0.447214 -0.894427
vn 0.000000 0.447214 -0.894427
vn 1.000000 0.000000 0.000000
vn 1.000000 0.000000 0.000000
vn 1.000000 0.000000 0.000000
vn 1.000000 0.000000 0.000000
vn -1.000000 0.000000 0.000000
vn -1.000000 0.000000 0.000000
vn -1.000000 0.000000 0.000000
vn -1.000000 0.000000 0.000000
vn 0.000000 -0.447212 0.894428
vn 0.000000 -0.447212 0.894428
vn 0.000000 -0.447212 0.894428
vn 0.000000 -0.447212 0.894428
vn 0.000000 0.447212 -0.894428
vn 0.000000 0.447212 -0.894428
vn 0.000000 0.447212 -0.894428
vn 0.000000 0.447212 -0.894428
vn 1.000000 0.000000 0.000000
vn 1.000000 0.000000 0.000000
vn 1.000000 0.000000 0.000000
vn 1.000000 0.000000 0.000000
vn -1.000000 0.000000 0.000000
vn -1.000000 0.000000 0.000000
vn -1.000000 0.000000 0.000000
vn -1.000000 0.000000 0.000000
vn 0.000000 -0.894428 -0.447213
vn 0.000000 -0.894428 -0.447213
vn 0.000000 -0.894428 -0.447213
vn 0.000000 -0.894428 -0.447213
s off
g lip_1
usemtl initialShadingGroup
f 2/99/1 4/100/2 3/101/3 1/102/4
f 3/123/5 4/124/6 6/125/7 5/126/8
f 7/103/9 8/104/10 9/105/11 10/106/12
f 2/1/13 6/2/14 4/3/15
f 5/6/16 1/7/17 3/8/18
f 5/126/19 6/125/20 8/127/21 7/128/22
f 6/2/23 2/1/24 9/4/25 8/5/26
f 2/129/27 1/130/28 10/131/29 9/132/30
f 1/7/31 5/6/32 7/9/33 10/10/34
f 11/133/35 12/134/36 14/135/37 13/136/38
f 15/137/39 16/138/40 18/139/41 17/140/42
f 12/11/43 18/12/44 16/13/45 14/14/46
f 17/15/47 11/16/48 13/17/49 15/18/50
f 19/141/51 20/142/52 22/143/53 21/144/54
f 23/145/55 24/146/56 26/147/57 25/148/58
f 20/19/59 26/20/60 24/21/61 22/22/62
f 25/23/63 19/24/64 21/25/65 23/26/66
f 27/149/67 28/150/68 30/151/69 29/152/70
f 31/153/71 32/154/72 34/155/73 33/156/74
f 28/27/75 34/28/76 32/29/77 30/30/78
f 33/31/79 27/32/80 29/33/81 31/34/82
f 35/157/83 36/158/84 38/159/85 37/160/86
f 39/161/87 40/162/88 42/163/89 41/164/90
f 36/35/91 42/36/92 40/37/93 38/38/94
f 41/39/95 35/40/96 37/41/97 39/42/98
f 43/165/99 44/166/100 46/167/101 45/168/102
f 45/107/103 46/108/104 48/109/105 47/110/106
f 47/169/107 48/170/108 50/171/109 49/172/110
f 49/111/111 50/112/112 44/113/113 43/114/114
f 44/43/115 50/44/116 48/45/117 46/46/118
f 49/47/119 43/48/120 45/49/121 47/50/122
f 51/173/123 52/174/124 54/175/125 53/176/126
f 55/177/127 56/178/128 58/179/129 57/180/130
f 52/51/131 58/52/132 56/53/133 54/54/134
f 57/55/135 51/56/136 53/57/137 55/58/138
f 59/181/139 60/182/140 62/183/141 61/184/142
f 61/115/143 62/116/144 64/117/145 63/118/146
f 63/185/147 64/186/148 66/187/149 65/188/150
f 60/59/151 66/60/152 64/61/153 62/62/154
f 65/63/155 59/64/156 61/65/157 63/66/158
f 67/189/159 68/190/160 70/191/161 69/192/162
f 71/193/163 72/194/164 74/195/165 73/196/166
f 68/67/167 74/68/168 72/69/169 70/70/170
f 73/71/171 67/72/172 69/73/173 71/74/174
f 75/197/175 76/198/176 78/199/177 77/200/178
f 79/201/179 80/202/180 82/203/181 81/204/182
f 76/75/183 82/76/184 80/77/185 78/78/186
f 81/79/187 75/80/188 77/81/189 79/82/190
f 83/205/191 84/206/192 86/207/193 85/208/194
f 87/209/195 88/210/196 90/211/197 89/212/198
f 84/83/199 90/84/200 88/85/201 86/86/202
f 89/87/203 83/88/204 85/89/205 87/90/206
f 91/213/207 92/214/208 94/215/209 93/216/210
f 95/217/211 96/218/212 98/219/213 97/220/214
f 92/91/215 98/92/216 96/93/217 94/94/218
f 97/95/219 91/96/220 93/97/221 95/98/222
f 60/119/223 59/120/224 65/121/225 66/122/226
