# This file uses centimeters as units for non-parametric coordinates.

mtllib MDL_stairs lip 2.mtl
g default
v -8.000000 0.000000 9.000000
v -8.002228 0.007115 8.000465
v -8.002228 1.177728 8.000465
v -8.000000 1.170613 9.000000
v -9.000000 0.000000 10.000000
v -9.000000 1.170613 9.000000
v -8.000000 0.000000 10.000000
v -9.000000 0.000000 9.000000
v -9.000000 0.000000 8.000000
v -9.000000 1.170613 8.000000
v -8.002228 0.007115 7.000233
v -8.002228 1.177728 7.000233
v -9.000000 0.000000 6.999767
v -9.000000 1.170613 6.999767
vt 0.755547 0.315189
vt 0.859793 0.315189
vt 0.755547 0.404287
vt 0.755547 0.226177
vt 0.859793 0.226177
vt 0.299993 0.440864
vt 0.195737 0.440864
vt 0.195737 0.351804
vt 0.299993 0.351804
vt 0.299993 0.529945
vt 0.195737 0.529945
vt 0.195737 0.262743
vt 0.088963 0.641889
vt 0.088963 0.730930
vt 0.000000 0.730930
vt 0.000000 0.641889
vt 0.088963 0.819989
vt 0.000000 0.819989
vt 0.000000 0.552809
vt 0.088963 0.552809
vt 0.558741 0.137125
vt 0.558741 0.226172
vt 0.469770 0.226172
vt 0.469770 0.137125
vt 0.558741 0.315259
vt 0.469770 0.315259
vt 0.469770 0.000000
vt 0.558741 0.000000
vt 0.178902 0.745602
vt 0.178902 0.849857
vt 0.090039 0.849857
vt 0.090039 0.745602
vn 0.000000 0.649524 0.760341
vn 0.000000 0.649524 0.760341
vn 0.000000 0.649524 0.760341
vn 0.000000 0.649524 0.760341
vn 1.000000 0.000000 0.000000
vn 1.000000 0.000000 0.000000
vn 1.000000 0.000000 0.000000
vn 0.003562 -0.999987 -0.003562
vn 0.003562 -0.999987 -0.003562
vn 0.003562 -0.999987 -0.003562
vn 0.003562 -0.999987 -0.003562
vn 0.000467 0.000000 -1.000000
vn 0.000467 0.000000 -1.000000
vn 0.000467 0.000000 -1.000000
vn 0.000467 0.000000 -1.000000
vn 0.000000 -1.000000 0.000000
vn 0.000000 -1.000000 0.000000
vn 0.000000 -1.000000 0.000000
vn 0.000000 -1.000000 0.000000
vn -1.000000 0.000000 0.000000
vn -1.000000 0.000000 0.000000
vn -1.000000 0.000000 0.000000
vn -1.000000 0.000000 0.000000
vn -1.000000 0.000000 0.000000
vn -1.000000 0.000000 0.000000
vn -1.000000 0.000000 0.000000
vn -0.003562 0.999987 0.003562
vn -0.003562 0.999987 0.003562
vn -0.003562 0.999987 0.003562
vn -0.003562 0.999987 0.003562
vn 0.999998 0.000000 -0.002229
vn 0.999998 0.000000 -0.002229
vn 0.999998 0.000000 -0.002229
vn 0.999998 0.000000 -0.002229
vn 0.007131 -0.999975 0.000000
vn 0.007131 -0.999975 0.000000
vn 0.007131 -0.999975 0.000000
vn 0.007131 -0.999975 0.000000
vn -1.000000 0.000000 0.000000
vn -1.000000 0.000000 0.000000
vn -1.000000 0.000000 0.000000
vn -1.000000 0.000000 0.000000
vn -0.007131 0.999975 0.000000
vn -0.007131 0.999975 0.000000
vn -0.007131 0.999975 0.000000
vn -0.007131 0.999975 0.000000
s off
g lip_2
usemtl initialShadingGroup
f 5/27/1 7/28/2 4/21/3 6/24/4
f 1/1/5 4/2/6 7/3/7
f 2/13/8 1/14/9 8/15/10 9/16/11
f 12/29/12 11/30/13 13/31/14 14/32/15
f 1/14/16 7/17/17 5/18/18 8/15/19
f 10/6/20 9/7/21 8/8/22 6/9/23
f 6/9/24 8/8/25 5/12/26
f 4/21/27 3/22/28 10/23/29 6/24/30
f 2/4/31 3/5/32 4/2/33 1/1/34
f 2/13/35 9/16/36 13/19/37 11/20/38
f 9/7/39 10/6/40 14/10/41 13/11/42
f 10/23/43 3/22/44 12/25/45 14/26/46
