# This file uses centimeters as units for non-parametric coordinates.

mtllib sheild healter.mtl
g default
v -0.064380 0.000000 0.000001
v -0.000487 3.229443 0.000000
v -0.177773 3.347826 -0.441991
v -0.215693 1.260448 -1.084504
v -0.215693 3.252854 -1.283287
v -0.215693 2.444316 -1.338460
v -0.215693 1.766555 -1.287268
v -0.215693 0.823388 -0.744656
v -0.177773 3.347826 0.441990
v -0.215693 1.260448 1.084504
v -0.215693 3.252854 1.283287
v -0.215693 2.444316 1.338460
v -0.215693 1.766555 1.287267
v -0.215693 0.823388 0.744656
v 0.265947 1.035283 0.000000
v -0.000000 1.260448 -1.251390
v -0.000000 1.766555 -1.485356
v 0.265947 1.719515 0.000000
v -0.000000 0.823388 -0.859246
v 0.000000 0.000000 0.000000
v 0.196709 0.550644 0.000000
v -0.000000 3.252854 -1.480762
v 0.265947 2.893168 0.000000
v -0.000001 3.347826 -0.441991
v 0.167026 3.229443 0.000000
v -0.000000 2.444316 -1.544425
v 0.265947 2.301960 0.000000
v -0.000000 1.766555 1.485355
v -0.000000 1.260448 1.251389
v -0.000000 0.823388 0.859246
v -0.000001 3.347826 0.441991
v -0.000000 3.252854 1.480762
v -0.000000 2.444316 1.544425
v -0.036210 1.208874 0.172843
v -0.036210 1.557365 0.172843
v -0.215693 1.766555 -1.287268
v -0.215693 1.260448 -1.084504
v -0.064380 -0.000000 0.000001
v -0.064381 0.550644 0.000000
v -0.215693 0.823388 -0.744656
v 0.004540 2.819483 0.091210
v -0.000487 3.229443 0.000000
v -0.177773 3.347826 -0.441991
v -0.215693 3.252854 -1.283287
v 0.004540 2.419509 0.091210
v -0.215693 2.444316 -1.338460
v -0.215693 1.260448 1.084504
v -0.215693 1.766555 1.287267
v -0.215693 0.823388 0.744656
v -0.215693 3.252854 1.283287
v -0.177773 3.347826 0.441990
v -0.215693 2.444316 1.338460
v -0.034054 2.911225 0.418530
v -0.038593 2.460089 0.472749
v -0.074410 1.569241 0.497825
v -0.086273 1.283372 0.531657
v -0.284770 2.469072 0.406824
v -0.257592 2.427684 0.166411
v -0.174981 2.911225 0.418530
v -0.136387 2.819483 0.091210
v -0.142304 1.208874 0.172843
v -0.192367 1.283372 0.531657
v -0.285391 1.560494 0.422625
v -0.261321 1.548383 0.217849
v -0.240370 2.469072 0.406824
v -0.104517 2.911225 0.418530
v -0.065923 2.819483 0.091210
v -0.213192 2.427684 0.166411
v -0.089257 1.208874 0.172843
v -0.139319 1.283372 0.531657
v -0.251965 1.560494 0.422625
v -0.227895 1.548383 0.217849
v -0.293472 2.165578 0.202791
v -0.320651 2.181072 0.406824
v -0.365051 2.181072 0.406824
v -0.337872 2.165578 0.202791
v -0.332245 1.840916 0.422625
v -0.308175 1.836382 0.217849
v -0.341600 1.836382 0.217849
v -0.365671 1.840916 0.422625
vt 0.795289 0.079279
vt 0.803961 0.108375
vt 0.799338 0.108337
vt 0.792376 0.079255
vt 0.809219 0.078710
vt 0.808583 0.108520
vt 0.787266 0.060313
vt 0.790179 0.060338
vt 0.787411 0.037970
vt 0.789604 0.037988
vt 0.792832 0.019614
vt 0.795025 0.019632
vt 0.802580 0.000153
vt 0.799099 0.000124
vt 0.806057 0.000000
vt 0.807666 0.018836
vt 0.229033 0.000143
vt 0.219342 0.026311
vt 0.216428 0.026308
vt 0.224409 0.000138
vt 0.233654 0.000000
vt 0.234466 0.026233
vt 0.214056 0.043669
vt 0.211142 0.043666
vt 0.213068 0.065292
vt 0.210875 0.065289
vt 0.218316 0.084195
vt 0.216123 0.084193
vt 0.227389 0.106677
vt 0.223908 0.106673
vt 0.231245 0.083870
vt 0.230870 0.106734
vt 0.742444 0.749436
vt 0.826410 0.762392
vt 0.841820 0.795823
vt 0.742575 0.793845
vt 0.742350 0.717948
vt 0.800686 0.733279
vt 0.742688 0.831819
vt 0.845776 0.840556
vt 0.643344 0.796412
vt 0.658555 0.762890
vt 0.684106 0.733625
vt 0.742236 0.679347
vt 0.639653 0.841167
vt 0.841525 0.893869
vt 0.742802 0.870414
vt 0.644220 0.894454
vt 0.773404 0.903226
vt 0.742870 0.893200
vt 0.712396 0.903407
vt 0.820538 0.677925
vt 0.821959 0.654904
vt 0.918821 0.647315
vt 0.903558 0.679894
vt 0.829850 0.598575
vt 0.924707 0.602929
vt 0.879551 0.707490
vt 0.828340 0.721884
vt 0.831061 0.572335
vt 0.924307 0.549738
vt 0.800700 0.652735
vt 0.804661 0.594792
vt 0.903558 0.679897
vt 0.879553 0.707490
vt 0.825650 0.757896
vt 0.779749 0.700829
vt 0.797582 0.671486
vt 0.837937 0.545599
vt 0.869566 0.539199
vt 0.924309 0.549736
vt 0.924709 0.602928
vt 0.747807 0.638641
vt 0.746401 0.594087
vt 0.761612 0.671215
vt 0.809413 0.565355
vt 0.807318 0.535209
vt 0.943496 0.550504
vt 0.944263 0.603732
vt 0.751835 0.541214
vt 0.779748 0.700831
vt 0.761608 0.671215
vt 0.920558 0.647342
vt 0.939760 0.648153
vt 0.747805 0.638641
vt 0.927903 0.682770
vt 0.744727 0.675085
vt 0.728887 0.642454
vt 0.736740 0.595428
vt 0.717546 0.599270
vt 0.728768 0.542843
vt 0.709945 0.546589
vt 0.000000 0.000000
vt 0.000000 0.000000
vt 0.000000 0.000000
vt 0.000000 0.000000
vt 0.000000 0.000000
vt 0.000000 0.000000
vt 0.000000 0.000000
vt 0.000000 0.000000
vt 0.000000 0.000000
vt 0.000000 0.000000
vt 0.000000 0.000000
vt 0.000000 0.000000
vt 0.000000 0.000000
vt 0.000000 0.000000
vt 0.000000 0.000000
vt 0.000000 0.000000
vt 0.000000 0.000000
vt 0.000000 0.000000
vt 0.000000 0.000000
vt 0.000000 0.000000
vt 0.000000 0.000000
vt 0.000000 0.000000
vt 0.000000 0.000000
vt 0.000000 0.000000
vt 0.000000 0.000000
vt 0.000000 0.000000
vt 0.972866 0.032735
vt 0.957011 0.029901
vt 0.957421 0.000000
vt 0.979031 0.006079
vt 0.969653 0.050593
vt 0.956153 0.049501
vt 0.968521 0.072189
vt 0.954994 0.071815
vt 0.969011 0.091801
vt 0.955485 0.090948
vt 0.972694 0.115305
vt 0.948936 0.110345
vt 0.889275 0.059111
vt 0.873397 0.061818
vt 0.872694 0.042213
vt 0.886203 0.041227
vt 0.871616 0.019881
vt 0.885146 0.019608
vt 0.872249 0.000752
vt 0.885781 0.000000
vt 0.534626 0.358271
vt 0.532203 0.413829
vt 0.520538 0.413842
vt 0.520397 0.345397
vt 0.520606 0.443867
vt 0.509614 0.443880
vt 0.532274 0.473878
vt 0.520609 0.473892
vt 0.534828 0.529429
vt 0.520630 0.542338
vt 0.277895 0.022316
vt 0.275246 0.000024
vt 0.279870 0.000000
vt 0.282518 0.022292
vt 0.273271 0.022340
vt 0.270623 0.000048
vt 0.006798 0.000005
vt 0.003481 0.024047
vt 0.000000 0.024042
vt 0.003317 0.000000
vt 0.010279 0.000009
vt 0.006962 0.024052
vt 0.128546 0.000000
vt 0.125765 0.025182
vt 0.112467 0.020997
vt 0.114269 0.004991
vt 0.181740 0.021340
vt 0.179244 0.000000
vt 0.191840 0.002934
vt 0.193401 0.016396
vt 0.961321 0.870859
vt 0.889017 0.884178
vt 0.887698 0.880164
vt 0.961565 0.854834
vt 0.822915 0.916360
vt 0.813210 0.903606
vt 0.996266 0.860928
vt 0.998280 0.843147
vt 0.788894 0.929102
vt 0.776722 0.915984
vt 0.910047 0.681544
vn 0.971252 -0.095719 -0.217963
vn 0.977331 -0.059549 -0.203170
vn 0.983320 -0.018878 -0.180900
vn 0.982826 -0.022179 -0.183197
vn 0.896292 -0.320186 -0.306825
vn 0.947134 -0.192637 -0.256568
vn 0.930333 -0.241256 -0.276180
vn 0.982884 0.092893 -0.159091
vn 0.985059 0.043048 -0.166753
vn 0.896558 0.432775 -0.094287
vn 0.896558 0.432775 -0.094287
vn 0.984982 -0.000162 -0.172657
vn 0.984998 0.000802 -0.172566
vn 0.971252 -0.095719 0.217964
vn 0.982826 -0.022179 0.183197
vn 0.983320 -0.018878 0.180900
vn 0.977331 -0.059549 0.203170
vn 0.896292 -0.320186 0.306825
vn 0.930333 -0.241256 0.276180
vn 0.947135 -0.192637 0.256568
vn 0.982884 0.092893 0.159091
vn 0.896558 0.432775 0.094287
vn 0.896558 0.432775 0.094287
vn 0.985059 0.043048 0.166753
vn 0.984982 -0.000162 0.172657
vn 0.984998 0.000802 0.172566
vn -0.987727 0.040710 0.150795
vn -0.989851 0.035689 0.137556
vn -0.989673 0.036750 0.138549
vn -0.988743 0.037556 0.144836
vn -0.979973 -0.000001 0.199129
vn -0.983006 0.034342 0.180332
vn -0.983787 0.047900 0.172827
vn -0.987136 -0.037510 0.155417
vn -0.971688 -0.174052 0.159776
vn -0.971688 -0.174052 0.159776
vn -0.987588 -0.025931 0.154914
vn -0.989113 0.019331 0.145885
vn -0.989082 0.018197 0.146239
vn -0.983922 0.036401 -0.174850
vn -0.971368 0.106197 -0.212525
vn -0.974904 0.080630 -0.207512
vn -0.980555 0.031109 -0.193765
vn -0.979973 -0.000001 -0.199129
vn -0.969361 0.118830 -0.214986
vn -0.976577 0.056968 -0.207489
vn -0.956250 -0.259457 -0.135160
vn -0.977804 -0.090960 -0.188749
vn -0.981175 -0.049743 -0.186606
vn -0.983439 0.012011 -0.180839
vn -0.980644 0.007573 -0.195655
vn -0.613473 -0.312853 -0.725102
vn -0.613473 -0.312853 -0.725102
vn -0.613473 -0.312853 -0.725102
vn -0.613473 -0.312853 -0.725102
vn -0.276433 -0.683447 -0.675637
vn -0.276433 -0.683447 -0.675637
vn -0.276433 -0.683447 -0.675637
vn -0.276433 -0.683447 -0.675637
vn -0.049887 0.993797 -0.099398
vn -0.049887 0.993796 -0.099398
vn -0.049887 0.993797 -0.099398
vn -0.049887 0.993796 -0.099398
vn 0.000000 0.965952 0.258721
vn 0.000000 0.965952 0.258721
vn 0.000000 0.965952 0.258721
vn 0.000000 0.965952 0.258721
vn -0.682073 0.053597 -0.729318
vn -0.682073 0.053597 -0.729318
vn -0.682073 0.053597 -0.729318
vn -0.682073 0.053597 -0.729318
vn -0.682406 -0.059264 -0.728567
vn -0.682405 -0.059264 -0.728567
vn -0.682406 -0.059264 -0.728567
vn -0.682406 -0.059264 -0.728568
vn -0.447396 -0.574186 -0.685673
vn -0.447396 -0.574186 -0.685673
vn -0.447396 -0.574186 -0.685673
vn -0.447396 -0.574186 -0.685673
vn -0.613472 -0.312853 0.725103
vn -0.613472 -0.312853 0.725103
vn -0.613472 -0.312853 0.725103
vn -0.613472 -0.312853 0.725103
vn -0.276430 -0.683447 0.675638
vn -0.276430 -0.683447 0.675638
vn -0.276430 -0.683447 0.675638
vn -0.276430 -0.683447 0.675638
vn 0.000001 0.965952 -0.258721
vn 0.000001 0.965952 -0.258721
vn 0.000001 0.965952 -0.258721
vn 0.000001 0.965952 -0.258721
vn -0.049887 0.993796 0.099398
vn -0.049887 0.993796 0.099398
vn -0.049887 0.993796 0.099398
vn -0.049887 0.993796 0.099398
vn -0.682072 0.053597 0.729318
vn -0.682073 0.053597 0.729318
vn -0.682072 0.053597 0.729318
vn -0.682072 0.053597 0.729318
vn -0.682405 -0.059264 0.728568
vn -0.682405 -0.059264 0.728568
vn -0.682405 -0.059264 0.728568
vn -0.682405 -0.059264 0.728568
vn -0.447395 -0.574186 0.685674
vn -0.447395 -0.574186 0.685673
vn -0.447395 -0.574186 0.685673
vn -0.447395 -0.574186 0.685673
vn 0.000000 0.000000 0.000000
vn 0.000000 0.000000 0.000000
vn 0.000000 0.000000 0.000000
vn 0.000000 0.000000 0.000000
vn 0.000000 0.000000 -0.000000
vn 0.986394 0.000000 -0.164399
vn 0.986394 0.000000 -0.164399
vn 0.000000 0.000000 -0.000000
vn 0.000000 0.000000 0.000000
vn 0.000000 0.000000 0.000000
vn 0.000000 0.000000 0.000000
vn 0.000000 0.000000 0.000000
vn 0.000000 0.000000 0.000000
vn 0.000000 0.000000 0.000000
vn 0.000000 0.000000 0.000000
vn 0.000000 0.000000 0.000000
vn 0.000000 0.000000 0.000000
vn 0.000000 0.000000 0.000000
vn 0.000000 0.000000 0.000000
vn 0.000000 0.000000 0.000000
vn 0.000000 0.000000 0.000000
vn 0.000000 0.000000 0.000000
vn 0.000000 0.000000 0.000000
vn 0.000000 0.000000 0.000000
vn 0.000000 0.000000 0.000000
vn 0.000000 0.000000 0.000000
vn 0.000000 0.000000 0.000000
vn 0.000000 0.000000 0.000000
vn 0.000000 0.000000 0.000000
vn 0.000000 0.000000 0.000000
vn 0.000000 0.000000 0.000000
vn 0.000000 0.000000 0.000000
vn 0.986394 0.000000 0.164399
vn 0.000000 0.000000 0.000000
vn 0.000000 0.000000 0.000000
vn 0.986394 0.000000 0.164399
vn 0.000000 0.000000 0.000000
vn 0.000000 0.000000 0.000000
vn 0.000000 0.000000 0.000000
vn 0.000000 0.000000 0.000000
vn 0.000000 0.000000 0.000000
vn 0.000000 0.000000 0.000000
vn 0.000000 0.000000 0.000000
vn 0.000000 0.000000 0.000000
vn 0.999981 0.006113 0.000000
vn 0.000000 0.000000 0.000000
vn 0.000000 0.000000 0.000000
vn 0.999981 0.006113 0.000000
vn 0.000000 -0.000000 0.000000
vn 0.999970 -0.007812 0.000000
vn 0.999970 -0.007812 0.000000
vn 0.000000 -0.000000 0.000000
vn 0.000000 0.000000 0.000000
vn 0.000000 0.000000 0.000000
vn 0.000000 0.000000 0.000000
vn 0.000000 0.000000 0.000000
vn -0.958076 -0.185795 -0.218105
vn -0.958076 -0.185795 -0.218105
vn -0.953044 0.251092 -0.169292
vn -0.953044 0.251092 -0.169292
vn -0.953044 0.251092 -0.169292
vn -0.953044 0.251092 -0.169292
vn -0.992478 0.036231 -0.116942
vn -0.992478 0.036231 -0.116942
vn -0.940787 -0.331075 -0.072871
vn -0.940787 -0.331075 -0.072871
vn -0.940787 -0.331075 -0.072871
vn -0.940787 -0.331075 -0.072871
vn -0.967655 0.128578 -0.217052
vn -0.148952 0.043350 0.987894
vn -0.183063 0.059442 0.981302
vn 0.000000 -0.026464 0.999650
vn 0.000000 -0.026464 0.999650
vn 0.000000 0.962893 -0.269884
vn 0.000000 0.962893 -0.269884
vn 0.000000 0.962893 -0.269884
vn 0.000000 0.962893 -0.269884
vn -0.205060 -0.073372 -0.975995
vn -0.158653 -0.100356 -0.982221
vn 0.000000 -0.188496 -0.982074
vn 0.000000 -0.188496 -0.982074
vn 0.000000 -0.979120 0.203286
vn 0.000000 -0.979120 0.203286
vn 0.000000 -0.979119 0.203286
vn 0.000000 -0.979120 0.203286
vn -0.255488 0.217848 0.941949
vn -0.194582 0.256188 0.946840
vn 0.000000 0.366127 0.930565
vn 0.000000 0.366127 0.930565
vn -0.117595 0.064966 -0.990934
vn -0.150926 0.045691 -0.987489
vn 0.000000 0.131411 -0.991328
vn 0.000000 0.131411 -0.991328
vn -0.231977 0.082585 0.969209
vn -0.231977 0.082586 0.969209
vn 0.000000 0.962893 -0.269884
vn 0.000000 0.962893 -0.269884
vn -0.253415 -0.044644 -0.966327
vn -0.253415 -0.044644 -0.966327
vn -0.037748 -0.991265 0.126372
vn -0.037748 -0.991265 0.126372
vn -0.037748 -0.991264 0.126372
vn -0.037748 -0.991264 0.126372
vn 0.000000 -0.979119 0.203286
vn 0.000000 -0.979119 0.203286
vn -0.311112 0.181056 0.932967
vn -0.311112 0.181056 0.932967
vn -0.043793 0.997772 -0.050326
vn -0.043793 0.997772 -0.050326
vn -0.043793 0.997772 -0.050326
vn -0.043793 0.997772 -0.050326
vn -0.181778 0.027670 -0.982950
vn -0.181778 0.027670 -0.982950
vn 0.951625 -0.267789 0.150660
vn 0.951625 -0.267789 0.150660
vn 0.951625 -0.267789 0.150660
vn 0.951625 -0.267789 0.150660
vn 0.000000 0.000000 1.000000
vn 0.000000 0.000000 1.000000
vn 0.000000 0.000000 1.000000
vn 0.000000 0.000000 1.000000
vn -0.951625 0.267789 -0.150660
vn -0.951625 0.267789 -0.150660
vn -0.951625 0.267789 -0.150660
vn -0.951625 0.267789 -0.150660
vn 0.000000 -0.137483 -0.990504
vn 0.000000 -0.137482 -0.990504
vn 0.000000 -0.137483 -0.990504
vn 0.000000 -0.137482 -0.990504
vn 0.957371 0.270425 0.101543
vn 0.957371 0.270425 0.101543
vn 0.957371 0.270425 0.101543
vn 0.957371 0.270426 0.101543
vn 0.000000 0.000000 -1.000000
vn 0.000000 0.000000 -1.000000
vn 0.000000 0.000000 -1.000000
vn 0.000000 0.000000 -1.000000
vn -0.957371 -0.270425 -0.101543
vn -0.957371 -0.270425 -0.101543
vn -0.957371 -0.270425 -0.101543
vn -0.957371 -0.270425 -0.101543
vn 0.000000 0.000000 1.000000
vn 0.000000 0.000000 1.000000
vn 0.000000 0.000000 1.000000
vn 0.000000 0.000000 1.000000
vn 0.000000 0.046400 0.998923
vn 0.000000 0.046400 0.998923
vn 0.000000 0.046400 0.998923
vn 0.000000 0.046400 0.998923
vn -0.992229 0.000710 -0.124424
vn -0.992229 0.000710 -0.124424
vn -0.992229 0.000710 -0.124424
vn -0.992229 0.000710 -0.124424
vn 0.000000 -0.045692 -0.998956
vn 0.000000 -0.045692 -0.998956
vn 0.000000 -0.045692 -0.998956
vn 0.000000 -0.045692 -0.998956
vn 0.991486 -0.033149 0.125920
vn 0.991487 -0.033149 0.125920
vn 0.991487 -0.033149 0.125920
vn 0.991487 -0.033149 0.125920
s 1
g healter
usemtl initialShadingGroup
f 15/33/1 16/34/2 17/35/3 18/36/4
f 20/44/5 19/38/6 21/37/7
f 23/47/8 22/46/9 24/49/10 25/50/11
f 27/39/12 26/40/13 22/46/9 23/47/8
f 27/39/12 18/36/4 17/35/3 26/40/13
f 15/33/1 21/37/7 19/38/6 16/34/2
s 3
f 15/33/14 18/36/15 28/41/16 29/42/17
f 20/44/18 21/37/19 30/43/20
f 23/47/21 25/50/22 31/51/23 32/48/24
f 27/39/25 23/47/21 32/48/24 33/45/26
f 27/39/25 33/45/26 28/41/16 18/36/15
f 15/33/14 29/42/17 30/43/20 21/37/19
s 5
f 34/52/27 35/53/28 36/54/29 37/55/30
f 38/66/31 39/59/32 40/58/33
f 41/60/34 42/69/35 43/70/36 44/61/37
f 45/56/38 41/60/34 44/61/37 46/57/39
f 45/56/38 46/57/39 36/54/29 35/53/28
f 34/52/27 37/55/30 40/58/33 39/59/32
s 7
f 55/62/40 56/68/41 47/75/42 48/73/43
f 38/66/44 49/67/45 39/59/46
f 51/77/47 53/76/48 50/80/49
f 53/76/48 54/63/50 52/74/51 50/80/49
f 54/63/50 55/62/40 48/73/43 52/74/51
f 56/68/41 49/67/45 47/75/42
s off
f 4/179/52 7/83/53 17/84/54 16/86/55
f 1/170/56 8/173/57 19/174/58 20/171/59
f 5/139/60 3/140/61 24/141/62 22/142/63
f 3/140/64 2/143/65 25/144/66 24/141/67
f 6/72/68 5/71/69 22/78/70 26/79/71
f 7/83/72 6/72/73 26/79/74 17/84/75
f 8/173/76 4/177/77 16/178/78 19/174/79
f 13/85/80 10/82/81 29/87/82 28/88/83
f 14/169/84 1/170/85 20/171/86 30/172/87
f 2/143/88 9/145/89 31/146/90 25/144/91
f 9/145/92 11/147/93 32/148/94 31/146/95
f 11/91/96 12/89/97 33/90/98 32/92/99
f 12/89/100 13/85/101 28/88/102 33/90/103
f 10/175/104 14/169/105 30/172/106 29/176/107
f 7/93/108 4/94/109 37/95/110 36/96/111
f 8/99/112 1/100/113 38/101/114 40/102/115
f 2/105/116 3/106/117 43/107/118 42/108/119
f 3/106/120 5/109/121 44/110/122 43/107/123
f 5/71/124 6/72/125 46/57/126 44/61/127
f 6/97/128 7/93/129 36/96/130 46/98/131
f 4/64/132 8/65/133 40/58/134 37/55/135
f 10/82/136 13/85/137 48/73/138 47/75/139
f 1/100/140 14/103/141 49/104/142 38/101/143
f 11/113/144 9/111/145 51/112/146 50/114/147
f 9/111/148 2/105/149 42/108/150 51/112/151
f 12/115/152 11/113/153 50/114/154 52/116/155
f 13/117/156 12/115/157 52/116/158 48/118/159
f 14/81/160 10/82/161 47/75/162 49/67/163
s 7
f 41/60/164 53/76/48 51/77/47 42/69/165
s off
f 58/119/166 57/120/167 59/121/168 60/122/169
s 7
f 45/56/170 35/53/171 55/62/40 54/63/50
s off
f 61/129/172 62/130/173 63/128/174 64/127/175
s 7
f 34/52/176 39/59/46 49/67/45 56/68/41
s 10
f 65/1/177 66/2/178 59/3/179 57/4/180
s 11
f 66/149/181 67/150/182 60/151/183 59/152/184
s 12
f 67/17/185 68/18/186 58/19/187 60/20/188
s 13
f 69/155/189 70/156/190 62/157/191 61/158/192
s 14
f 70/13/193 71/12/194 63/11/195 62/14/196
s 15
f 72/27/197 69/29/198 61/30/199 64/28/200
s 10
f 54/5/201 53/6/202 66/2/178 65/1/177
s 11
f 53/153/203 41/154/204 67/150/182 66/149/181
s 12
f 41/21/205 45/22/206 68/18/186 67/17/185
s off
f 45/161/207 54/162/208 65/163/209 68/164/210
s 13
f 34/159/211 56/160/212 70/156/190 69/155/189
s 14
f 56/15/213 55/16/214 71/12/194 70/13/193
s off
f 55/165/215 35/166/216 72/167/217 71/168/218
s 15
f 35/31/219 34/32/220 69/29/198 72/27/197
s off
f 68/131/221 65/132/222 74/133/223 73/134/224
f 65/1/225 57/4/226 75/7/227 74/8/228
f 57/120/229 58/119/230 76/123/231 75/124/232
f 58/19/233 68/18/234 73/23/235 76/24/236
f 71/137/237 72/138/238 78/136/239 77/135/240
f 72/27/241 64/28/242 79/26/243 78/25/244
f 64/127/245 63/128/246 80/126/247 79/125/248
f 63/11/249 71/12/250 77/10/251 80/9/252
f 74/8/253 75/7/254 80/9/255 77/10/256
f 75/124/257 76/123/258 79/125/259 80/126/260
f 76/24/261 73/23/262 78/25/263 79/26/264
f 73/134/265 74/133/266 77/135/267 78/136/268
