# This file uses centimeters as units for non-parametric coordinates.

mtllib sward.mtl
g default
v 0.085166 0.181086 -0.147511
v -0.085166 0.181086 -0.147511
v -0.170331 0.181086 -0.000000
v -0.085166 0.181086 0.147511
v 0.085166 0.181086 0.147511
v 0.170331 0.181086 0.000000
v 0.107812 1.274383 -0.186736
v -0.107812 1.274383 -0.186736
v -0.191173 1.274383 -0.000000
v -0.107812 1.274383 0.186736
v 0.107812 1.274383 0.186736
v 0.191173 1.274383 0.000000
v 0.107812 1.622887 -0.186736
v -0.107812 1.622887 -0.186736
v -0.191173 1.622887 -0.000000
v -0.107812 1.622887 0.186736
v 0.107812 1.622887 0.186736
v 0.191173 1.622887 0.000000
v 0.036523 1.298643 -0.220680
v -0.036522 1.298643 -0.220680
v -0.036522 1.598626 -0.220680
v 0.036523 1.598626 -0.220680
v -0.036522 1.298643 0.220680
v 0.036522 1.298643 0.220680
v 0.036522 1.598626 0.220680
v -0.036522 1.598626 0.220680
v 0.036455 1.643592 -0.137408
v -0.036455 1.643592 -0.137408
v -0.036455 1.643592 0.137408
v 0.036455 1.643592 0.137408
v 0.059505 1.214176 -0.103066
v -0.059505 1.214176 -0.103066
v -0.119011 1.214176 -0.000000
v -0.059505 1.214176 0.103066
v 0.059505 1.214176 0.103066
v 0.119011 1.214176 -0.000000
v 0.059505 0.230532 -0.103066
v -0.059505 0.230532 -0.103066
v -0.119011 0.230532 -0.000000
v -0.059505 0.230532 0.103066
v 0.059505 0.230532 0.103066
v 0.119011 0.230532 -0.000000
v 0.085166 0.094501 -0.147511
v -0.085166 0.094501 -0.147511
v 0.000000 -0.000000 0.000000
v -0.170331 0.094501 -0.000000
v -0.085166 0.094501 0.147511
v 0.085166 0.094501 0.147511
v 0.170331 0.094501 0.000000
v 0.014281 4.580113 -0.029084
v -0.014280 4.580113 -0.029084
v 0.000000 4.580113 0.000000
v -0.028561 4.580113 -0.000000
v -0.014280 4.580113 0.029084
v 0.014281 4.580113 0.029084
v 0.028561 4.580113 0.000000
v 0.022797 1.580717 -0.549062
v -0.022797 1.580717 -0.549062
v -0.022797 1.664161 -0.549062
v 0.022797 1.664161 -0.549062
v -0.022797 1.580717 0.549062
v 0.022797 1.580717 0.549062
v 0.022797 1.664161 0.549062
v -0.022797 1.664161 0.549062
v 0.028429 3.184293 -0.124916
v -0.028429 3.184293 -0.124916
v -0.028429 3.184293 0.124916
v 0.028429 3.184293 0.124916
v 0.025025 4.476274 -0.101591
v 0.025025 4.476274 0.101592
v -0.025025 4.476274 0.101592
v -0.025025 4.476274 -0.101592
v -0.064826 1.643592 -0.048458
v -0.102929 1.638336 -0.000000
v -0.064826 1.643592 0.048458
v -0.049922 3.184292 -0.048458
v -0.049922 3.184292 0.048458
v 0.064826 1.643592 0.048458
v 0.102929 1.638336 0.000000
v 0.064826 1.643592 -0.048458
v 0.049922 3.184293 0.048458
v 0.049922 3.184293 -0.048458
v -0.042543 4.476274 -0.048458
v -0.042543 4.476274 0.048458
v -0.043874 4.506115 -0.000000
v 0.042543 4.476274 0.048458
v 0.042543 4.476274 -0.048458
v 0.043874 4.506116 0.000000
v -0.058333 1.803632 -0.020134
v -0.058333 1.803632 0.020134
v -0.044922 3.170240 0.020134
v -0.044922 3.170240 -0.020134
v -0.038283 4.316233 0.020134
v -0.038283 4.316233 -0.020134
v 0.058333 1.803632 0.020134
v 0.058333 1.803632 -0.020134
v 0.044922 3.170241 -0.020134
v 0.044922 3.170241 0.020134
v 0.038283 4.316234 -0.020134
v 0.038283 4.316234 0.020134
vt 0.421320 0.402187
vt 0.484657 0.402187
vt 0.484657 0.520393
vt 0.421320 0.520393
vt 0.449699 0.381766
vt 0.484657 0.381766
vt 0.547995 0.402187
vt 0.547995 0.520393
vt 0.449699 0.048131
vt 0.484657 0.048131
vt 0.519616 0.381766
vt 0.434624 0.031360
vt 0.484657 0.031360
vt 0.519616 0.048131
vt 0.434624 0.001992
vt 0.484657 0.001992
vt 0.534690 0.031360
vt 0.534690 0.001992
vt 0.553922 0.402187
vt 0.617259 0.402187
vt 0.617259 0.520393
vt 0.553922 0.520393
vt 0.582301 0.381766
vt 0.617259 0.381766
vt 0.680597 0.402187
vt 0.680597 0.520393
vt 0.582301 0.048131
vt 0.617259 0.048131
vt 0.652217 0.381766
vt 0.567226 0.031360
vt 0.617259 0.031360
vt 0.652217 0.048131
vt 0.567226 0.001992
vt 0.617259 0.001992
vt 0.667292 0.031360
vt 0.667292 0.001992
vt 0.917595 0.378127
vt 0.917595 0.479876
vt 0.806214 0.502104
vt 0.806214 0.473801
vt 0.689191 0.479876
vt 0.689191 0.378127
vt 0.800573 0.473801
vt 0.800573 0.502104
vt 0.683550 0.524063
vt 0.683550 0.625812
vt 0.572169 0.648040
vt 0.572169 0.619738
vt 0.455147 0.625812
vt 0.455147 0.524063
vt 0.566528 0.619738
vt 0.566528 0.648040
vt 0.013980 0.962788
vt 0.032002 0.962788
vt 0.048438 0.972909
vt 0.048438 0.998008
vt 0.038573 0.998008
vt 0.006069 0.524571
vt 0.032002 0.524571
vt 0.064874 0.962788
vt 0.082896 0.962788
vt 0.058302 0.998008
vt 0.001832 0.001992
vt 0.032002 0.001992
vt 0.041609 0.519805
vt 0.041609 0.908505
vt 0.055267 0.908505
vt 0.064874 0.524571
vt 0.090807 0.524571
vt 0.041609 0.056275
vt 0.055267 0.519805
vt 0.064874 0.001992
vt 0.095044 0.001992
vt 0.055267 0.056275
vt 0.114507 0.962788
vt 0.132528 0.962788
vt 0.148965 0.972909
vt 0.148965 0.998008
vt 0.139100 0.998008
vt 0.106595 0.524571
vt 0.132528 0.524570
vt 0.165401 0.962788
vt 0.183423 0.962788
vt 0.158829 0.998008
vt 0.102358 0.001992
vt 0.132528 0.001992
vt 0.142135 0.519804
vt 0.142135 0.908505
vt 0.155794 0.908505
vt 0.165401 0.524570
vt 0.191334 0.524571
vt 0.142135 0.056275
vt 0.155794 0.519804
vt 0.165401 0.001992
vt 0.195571 0.001992
vt 0.155794 0.056275
vt 0.399473 0.653609
vt 0.349439 0.624723
vt 0.399473 0.595836
vt 0.349439 0.566949
vt 0.449506 0.624723
vt 0.399473 0.538063
vt 0.449506 0.566949
vt 0.338955 0.582385
vt 0.329267 0.582385
vt 0.334111 0.572521
vt 0.342599 0.606979
vt 0.325623 0.606979
vt 0.324424 0.572521
vt 0.343798 0.572521
vt 0.329267 0.562656
vt 0.338955 0.562656
vt 0.325623 0.538063
vt 0.342599 0.538063
vt 0.787934 0.251562
vt 0.714798 0.251562
vt 0.739001 0.234831
vt 0.763731 0.234831
vt 0.763754 0.263075
vt 0.738978 0.263075
vt 0.686524 0.188224
vt 0.716455 0.188224
vt 0.729378 0.204660
vt 0.816209 0.188224
vt 0.773354 0.204660
vt 0.786278 0.188224
vt 0.759098 0.374456
vt 0.743634 0.374457
vt 0.714798 0.124887
vt 0.739001 0.141618
vt 0.729378 0.171788
vt 0.773354 0.171788
vt 0.787934 0.124887
vt 0.763731 0.141618
vt 0.738978 0.113374
vt 0.763754 0.113374
vt 0.743634 0.001992
vt 0.759098 0.001992
vt 0.307931 0.030295
vt 0.292467 0.030295
vt 0.292467 0.001992
vt 0.307931 0.001992
vt 0.312587 0.125969
vt 0.287811 0.125969
vt 0.336767 0.134198
vt 0.263631 0.134198
vt 0.320382 0.154619
vt 0.280016 0.154619
vt 0.263631 0.015991
vt 0.287811 0.024220
vt 0.336767 0.015991
vt 0.312587 0.024220
vt 0.320382 0.488254
vt 0.280016 0.488254
vt 0.329085 0.505024
vt 0.271312 0.505024
vt 0.329085 0.534393
vt 0.271312 0.534393
vt 0.371311 0.506090
vt 0.386775 0.506090
vt 0.386775 0.534393
vt 0.371311 0.534393
vt 0.366655 0.410415
vt 0.391431 0.410415
vt 0.342475 0.402187
vt 0.415611 0.402187
vt 0.358860 0.381766
vt 0.399226 0.381766
vt 0.415611 0.520393
vt 0.391431 0.512165
vt 0.342475 0.520393
vt 0.366655 0.512165
vt 0.358860 0.048131
vt 0.399226 0.048131
vt 0.350157 0.031360
vt 0.407930 0.031360
vt 0.350157 0.001992
vt 0.407930 0.001992
vt 0.224713 0.440209
vt 0.205428 0.440209
vt 0.206583 0.001992
vt 0.223559 0.001992
vt 0.227436 0.962788
vt 0.202706 0.962788
vt 0.235891 0.524571
vt 0.255176 0.524571
vt 0.254021 0.962788
vt 0.237045 0.962788
vt 0.233168 0.001992
vt 0.257898 0.001992
vn 0.000000 -0.136497 -0.990641
vn 0.000000 -0.136497 -0.990641
vn 0.000000 -0.811698 -0.584077
vn 0.000000 -0.811698 -0.584077
vn -0.863393 -0.114967 -0.491258
vn -0.863557 -0.112704 -0.491495
vn -0.572907 -0.769422 -0.282432
vn -0.572907 -0.769422 -0.282432
vn -0.863557 -0.112704 0.491494
vn -0.863394 -0.114967 0.491258
vn -0.572907 -0.769422 0.282432
vn -0.572907 -0.769422 0.282432
vn -0.000000 -0.136497 0.990641
vn -0.000000 -0.136497 0.990641
vn -0.000000 -0.811698 0.584078
vn -0.000000 -0.811698 0.584078
vn 0.863394 -0.114967 0.491258
vn 0.863557 -0.112704 0.491495
vn 0.572907 -0.769422 0.282432
vn 0.572907 -0.769422 0.282432
vn 0.863557 -0.112704 -0.491494
vn 0.863394 -0.114967 -0.491258
vn 0.572907 -0.769422 -0.282431
vn 0.572907 -0.769422 -0.282431
vn -0.242572 -0.874434 -0.420147
vn 0.242572 -0.874434 -0.420147
vn -0.000000 -1.000000 0.000000
vn -0.485144 -0.874434 -0.000000
vn -0.242572 -0.874434 0.420147
vn 0.242572 -0.874434 0.420147
vn 0.485144 -0.874434 0.000000
vn 0.000000 1.000000 0.000000
vn 0.000000 1.000000 0.000000
vn 0.000000 1.000000 0.000000
vn 0.000000 1.000000 0.000000
vn 0.000000 1.000000 0.000000
vn 0.000000 1.000000 0.000000
vn 0.000000 1.000000 0.000000
vn 0.000009 0.000000 -1.000000
vn 0.000009 0.000000 -1.000000
vn 0.000009 0.000000 -1.000000
vn 0.000009 0.000000 -1.000000
vn -0.913143 0.000000 -0.407639
vn -0.913143 0.000000 -0.407639
vn -0.913143 0.000000 -0.407639
vn -0.913143 0.000000 -0.407639
vn -0.913143 0.000000 0.407638
vn -0.913143 0.000000 0.407638
vn -0.913143 0.000000 0.407638
vn -0.913143 0.000000 0.407638
vn -0.000002 0.000000 1.000000
vn -0.000002 0.000000 1.000000
vn -0.000002 0.000000 1.000000
vn -0.000002 0.000000 1.000000
vn 0.913143 0.000000 0.407639
vn 0.913143 0.000000 0.407639
vn 0.913143 0.000000 0.407639
vn 0.913143 0.000000 0.407639
vn 0.913144 0.000000 -0.407638
vn 0.913144 0.000000 -0.407638
vn 0.913144 0.000000 -0.407638
vn 0.913144 0.000000 -0.407638
vn 0.000000 -0.813574 -0.581461
vn 0.000000 -0.813574 -0.581461
vn 0.000000 -0.813574 -0.581461
vn 0.000000 -0.813574 -0.581461
vn -0.429903 0.000000 -0.902875
vn -0.429903 0.000000 -0.902875
vn -0.429903 0.000000 -0.902875
vn -0.429903 0.000000 -0.902875
vn 0.000000 0.813572 -0.581464
vn 0.000000 0.813572 -0.581464
vn 0.000000 0.813572 -0.581464
vn 0.000000 0.813572 -0.581464
vn 0.429902 0.000000 -0.902876
vn 0.429902 0.000000 -0.902876
vn 0.429902 0.000000 -0.902876
vn 0.429902 0.000000 -0.902876
vn -0.000000 -0.813575 0.581461
vn -0.000000 -0.813575 0.581461
vn -0.000000 -0.813575 0.581461
vn -0.000000 -0.813575 0.581461
vn 0.429903 0.000000 0.902875
vn 0.429903 0.000000 0.902875
vn 0.429903 0.000000 0.902875
vn 0.429903 0.000000 0.902875
vn 0.000000 0.813572 0.581464
vn 0.000000 0.813572 0.581464
vn 0.000000 0.813572 0.581464
vn 0.000000 0.813572 0.581464
vn -0.429903 0.000000 0.902875
vn -0.429903 0.000000 0.902875
vn -0.429903 0.000000 0.902875
vn -0.429903 0.000000 0.902875
vn 0.000000 0.922066 -0.387032
vn 0.000000 0.922066 -0.387032
vn 0.000000 0.922066 -0.387032
vn 0.000000 0.922066 -0.387032
vn -0.199763 0.976936 -0.075439
vn -0.199763 0.976936 -0.075439
vn -0.197524 0.980298 0.000000
vn -0.198076 0.977435 -0.073401
vn -0.199763 0.976936 -0.075439
vn -0.199763 0.976936 0.075439
vn -0.199763 0.976936 0.075439
vn -0.199763 0.976936 0.075439
vn -0.198076 0.977435 0.073402
vn 0.000000 0.922067 0.387030
vn 0.000000 0.922067 0.387030
vn 0.000000 0.922067 0.387030
vn 0.000000 0.922067 0.387030
vn 0.199763 0.976936 0.075439
vn 0.199763 0.976936 0.075439
vn 0.197524 0.980298 -0.000000
vn 0.198076 0.977435 0.073401
vn 0.199763 0.976936 0.075439
vn 0.199763 0.976936 -0.075439
vn 0.199763 0.976936 -0.075439
vn 0.199763 0.976936 -0.075439
vn 0.198076 0.977435 -0.073402
vn 0.000000 0.062925 -0.998018
vn 0.000000 0.062925 -0.998018
vn -0.864309 0.062925 -0.499009
vn -0.864309 0.062925 -0.499009
vn -0.864309 0.062925 0.499009
vn -0.864309 0.062925 0.499009
vn -0.000000 0.062925 0.998018
vn -0.000000 0.062925 0.998018
vn 0.864309 0.062924 0.499009
vn 0.864309 0.062925 0.499009
vn 0.864309 0.062925 -0.499009
vn 0.864309 0.062925 -0.499009
vn 0.000000 0.668496 -0.743716
vn 0.000000 0.668496 -0.743716
vn -0.644077 0.668496 -0.371858
vn -0.644077 0.668496 -0.371858
vn -0.644077 0.668496 0.371858
vn -0.644077 0.668496 0.371858
vn -0.000000 0.668496 0.743715
vn -0.000000 0.668496 0.743715
vn 0.644077 0.668496 0.371858
vn 0.644077 0.668496 0.371858
vn 0.644077 0.668496 -0.371858
vn 0.644077 0.668496 -0.371858
vn 0.000000 0.000000 -1.000000
vn 0.000000 0.000000 -1.000000
vn 0.000000 0.000000 -1.000000
vn 0.000000 0.000000 -1.000000
vn -0.866025 0.000000 -0.500000
vn -0.866025 0.000000 -0.500000
vn -0.866025 0.000000 -0.500000
vn -0.866025 0.000000 -0.500000
vn -0.866026 0.000000 0.500000
vn -0.866026 0.000000 0.500000
vn -0.866026 0.000000 0.500000
vn -0.866026 0.000000 0.500000
vn 0.000000 0.000000 1.000000
vn 0.000000 0.000000 1.000000
vn 0.000000 0.000000 1.000000
vn 0.000000 0.000000 1.000000
vn 0.866026 0.000000 0.500000
vn 0.866026 0.000000 0.500000
vn 0.866026 0.000000 0.500000
vn 0.866026 0.000000 0.500000
vn 0.866026 0.000000 -0.500000
vn 0.866026 0.000000 -0.500000
vn 0.866026 0.000000 -0.500000
vn 0.866026 0.000000 -0.500000
vn 0.000001 0.012158 -0.999926
vn 0.000001 0.012158 -0.999926
vn 0.000000 0.053938 -0.998544
vn 0.000000 0.053938 -0.998544
vn 0.000000 0.012158 0.999926
vn 0.000000 0.012158 0.999926
vn 0.000000 0.053938 0.998544
vn 0.000000 0.053938 0.998544
vn 0.000003 -0.758567 -0.651595
vn 0.000003 -0.758567 -0.651595
vn 0.000003 -0.758567 -0.651595
vn 0.000003 -0.758567 -0.651595
vn -0.999128 0.000000 -0.041761
vn -0.999128 0.000000 -0.041761
vn -0.999128 0.000000 -0.041761
vn -0.999128 0.000000 -0.041761
vn -0.000001 0.980662 0.195708
vn -0.000001 0.980662 0.195708
vn -0.000001 0.980662 0.195708
vn -0.000001 0.980662 0.195708
vn 0.999128 0.000000 -0.041761
vn 0.999128 0.000000 -0.041761
vn 0.999128 0.000000 -0.041761
vn 0.999128 0.000000 -0.041761
vn -0.000001 -0.758567 0.651595
vn -0.000001 -0.758567 0.651595
vn -0.000001 -0.758567 0.651595
vn -0.000001 -0.758567 0.651595
vn 0.999128 0.000000 0.041761
vn 0.999128 0.000000 0.041761
vn 0.999128 0.000000 0.041761
vn 0.999128 0.000000 0.041761
vn 0.000000 0.980662 -0.195709
vn 0.000000 0.980662 -0.195709
vn 0.000000 0.980662 -0.195709
vn 0.000000 0.980662 -0.195709
vn -0.999128 0.000000 0.041761
vn -0.999128 0.000000 0.041761
vn -0.999128 0.000000 0.041761
vn -0.999128 0.000000 0.041761
vn 0.000001 0.008107 -0.999967
vn 0.000001 0.008107 -0.999967
vn 0.000000 0.008107 0.999967
vn 0.000000 0.008107 0.999967
vn 0.957170 0.019339 0.288878
vn 0.956902 0.035746 0.288204
vn 0.965997 0.258553 -0.000001
vn 0.915361 0.277999 0.291258
vn 0.915361 0.277999 0.291258
vn 0.000000 0.572510 0.819898
vn 0.000000 0.572510 0.819898
vn -0.957171 0.019339 -0.288878
vn -0.956902 0.035746 -0.288204
vn -0.965997 0.258553 -0.000001
vn -0.915362 0.277999 -0.291256
vn -0.915362 0.277999 -0.291256
vn 0.000000 0.572510 -0.819898
vn 0.000000 0.572510 -0.819898
vn -0.956902 0.035746 0.288203
vn -0.957171 0.019339 0.288878
vn -0.915362 0.277999 0.291255
vn -0.915362 0.277999 0.291255
vn 0.956902 0.035746 -0.288204
vn 0.957170 0.019339 -0.288878
vn 0.915361 0.277999 -0.291259
vn 0.915360 0.277999 -0.291259
vn -0.999952 0.009813 0.000000
vn -0.999952 0.009813 0.000000
vn -0.999968 0.007980 0.000000
vn -0.999968 0.007980 0.000000
vn -0.999983 0.005793 0.000000
vn -0.999983 0.005793 0.000000
vn 0.999952 0.009813 0.000000
vn 0.999952 0.009813 0.000000
vn 0.999968 0.007980 0.000000
vn 0.999968 0.007980 0.000000
vn 0.999983 0.005793 0.000000
vn 0.999983 0.005793 0.000000
vn -0.957457 0.007628 -0.288475
vn -0.957457 0.007623 -0.288474
vn -0.957458 0.007623 0.288473
vn -0.957457 0.007628 0.288474
vn 0.957457 0.007628 0.288475
vn 0.957458 0.007623 0.288473
vn 0.957458 0.007623 -0.288473
vn 0.957457 0.007628 -0.288475
vn -0.957408 0.008295 -0.288620
vn -0.957408 0.008295 -0.288619
vn -0.957408 0.008295 0.288619
vn -0.957408 0.008295 0.288619
vn 0.957408 0.008295 0.288619
vn 0.957408 0.008295 0.288619
vn 0.957408 0.008295 -0.288619
vn 0.957408 0.008295 -0.288619
vn -0.999178 0.040535 -0.000000
vn -0.999178 0.040535 -0.000000
vn -0.999178 0.040535 -0.000000
vn -0.999178 0.040535 -0.000000
vn -0.984518 0.009589 -0.175020
vn -0.984518 0.009589 -0.175020
vn -0.984518 0.009589 -0.175020
vn -0.984518 0.009589 -0.175020
vn -0.984518 0.009589 0.175020
vn -0.984518 0.009589 0.175020
vn -0.984518 0.009589 0.175020
vn -0.984518 0.009589 0.175020
vn -0.983970 0.005658 -0.178243
vn -0.983970 0.005658 -0.178243
vn -0.983970 0.005658 -0.178243
vn -0.983970 0.005658 -0.178243
vn -0.999646 -0.026614 0.000000
vn -0.999646 -0.026614 0.000000
vn -0.999646 -0.026614 0.000000
vn -0.999646 -0.026614 0.000000
vn -0.983970 0.005658 0.178243
vn -0.983970 0.005658 0.178243
vn -0.983970 0.005658 0.178243
vn -0.983970 0.005658 0.178243
vn 0.999178 0.040535 0.000000
vn 0.999178 0.040535 0.000000
vn 0.999178 0.040535 0.000000
vn 0.999178 0.040535 0.000000
vn 0.984518 0.009589 0.175020
vn 0.984518 0.009589 0.175020
vn 0.984518 0.009589 0.175020
vn 0.984518 0.009589 0.175020
vn 0.984518 0.009589 -0.175020
vn 0.984518 0.009589 -0.175020
vn 0.984518 0.009589 -0.175020
vn 0.984518 0.009589 -0.175020
vn 0.983970 0.005658 0.178243
vn 0.983970 0.005658 0.178243
vn 0.983970 0.005658 0.178243
vn 0.983970 0.005658 0.178243
vn 0.999646 -0.026614 0.000000
vn 0.999646 -0.026614 0.000000
vn 0.999646 -0.026614 0.000000
vn 0.999646 -0.026614 0.000000
vn 0.983970 0.005658 -0.178243
vn 0.983970 0.005658 -0.178243
vn 0.983970 0.005658 -0.178243
vn 0.983970 0.005658 -0.178243
s 1
g pCylinder1
usemtl initialShadingGroup
f 31/147/1 32/148/2 8/146/3 7/145/4
s 2
f 32/5/5 33/6/6 9/2/7 8/1/8
s 3
f 33/6/9 34/11/10 10/7/11 9/2/12
s 4
f 34/167/13 35/168/14 11/166/15 10/165/16
s 5
f 35/23/17 36/24/18 12/20/19 11/19/20
s 6
f 36/24/21 31/29/22 7/25/23 12/20/24
s 7
f 44/98/25 43/100/26 45/99/27
f 46/97/28 44/98/25 45/99/27
f 47/101/29 46/97/28 45/99/27
f 48/103/30 47/101/29 45/99/27
f 49/102/31 48/103/30 45/99/27
f 43/100/26 49/102/31 45/99/27
s 8
f 50/104/32 51/105/33 52/106/34
f 51/105/33 53/109/35 52/106/34
f 53/109/35 54/111/36 52/106/34
f 54/111/36 55/112/37 52/106/34
f 55/112/37 56/110/38 52/106/34
f 56/110/38 50/104/32 52/106/34
s off
f 57/139/39 58/140/40 59/141/41 60/142/42
f 8/1/43 9/2/44 15/3/45 14/4/46
f 9/2/47 10/7/48 16/8/49 15/3/50
f 61/159/51 62/160/52 63/161/53 64/162/54
f 11/19/55 12/20/56 18/21/57 17/22/58
f 12/20/59 7/25/60 13/26/61 18/21/62
f 7/145/63 8/146/64 20/144/65 19/143/66
f 8/146/67 14/149/68 21/150/69 20/144/70
f 14/116/71 13/115/72 22/119/73 21/120/74
f 13/151/75 7/145/76 19/143/77 22/152/78
f 10/165/79 11/166/80 24/164/81 23/163/82
f 11/166/83 17/169/84 25/170/85 24/164/86
f 17/133/87 16/129/88 26/135/89 25/136/90
f 16/171/91 10/165/92 23/163/93 26/172/94
f 13/115/95 14/116/96 28/117/97 27/118/98
s 9
f 14/116/99 15/121/100 74/122/101 73/123/102 28/117/103
f 15/121/104 16/129/105 29/130/106 75/131/107 74/122/101
s off
f 16/129/108 17/133/109 30/134/110 29/130/111
s 10
f 17/133/112 18/124/113 79/126/114 78/132/115 30/134/116
f 18/124/117 13/115/118 27/118/119 80/125/120 79/126/114
s 1
f 37/153/121 38/154/122 32/148/2 31/147/1
s 2
f 38/9/123 39/10/124 33/6/6 32/5/5
s 3
f 39/10/125 40/14/126 34/11/10 33/6/9
s 4
f 40/173/127 41/174/128 35/168/14 34/167/13
s 5
f 41/27/129 42/28/130 36/24/18 35/23/17
s 6
f 42/28/131 37/32/132 31/29/22 36/24/21
s 1
f 1/155/133 2/156/134 38/154/122 37/153/121
s 2
f 2/12/135 3/13/136 39/10/124 38/9/123
s 3
f 3/13/137 4/17/138 40/14/126 39/10/125
s 4
f 4/175/139 5/176/140 41/174/128 40/173/127
s 5
f 5/30/141 6/31/142 42/28/130 41/27/129
s 6
f 6/31/143 1/35/144 37/32/132 42/28/131
s off
f 2/156/145 1/155/146 43/157/147 44/158/148
f 3/13/149 2/12/150 44/15/151 46/16/152
f 4/17/153 3/13/154 46/16/155 47/18/156
f 5/176/157 4/175/158 47/177/159 48/178/160
f 6/31/161 5/30/162 48/33/163 49/34/164
f 1/35/165 6/31/166 49/34/167 43/36/168
s 11
f 65/179/169 66/180/170 72/181/171 69/182/172
s 12
f 67/185/173 68/186/174 70/187/175 71/188/176
s off
f 19/143/177 20/144/178 58/140/179 57/139/180
f 20/37/181 21/38/182 59/39/183 58/40/184
f 21/120/185 22/119/186 60/127/187 59/128/188
f 22/41/189 19/42/190 57/43/191 60/44/192
f 23/163/193 24/164/194 62/160/195 61/159/196
f 24/45/197 25/46/198 63/47/199 62/48/200
f 25/136/201 26/135/202 64/137/203 63/138/204
f 26/49/205 23/50/206 61/51/207 64/52/208
s 11
f 27/183/209 28/184/210 66/180/170 65/179/169
s 12
f 29/189/211 30/190/212 68/186/174 67/185/173
s 13
f 70/53/213 86/54/214 88/55/215 56/56/216 55/57/217
s 12
f 71/113/176 70/114/175 55/112/218 54/111/219
s 14
f 72/75/220 83/76/221 85/77/222 53/78/223 51/79/224
s 11
f 69/107/172 72/108/171 51/105/225 50/104/226
s 14
f 85/77/222 84/82/227 71/83/228 54/84/229 53/78/230
s 13
f 88/55/215 87/60/231 69/61/232 50/62/233 56/56/234
s 15
f 89/92/235 90/96/236 91/93/237 92/87/238
f 92/87/238 91/93/237 93/89/239 94/88/240
s 16
f 95/70/241 96/74/242 97/71/243 98/65/244
f 98/65/244 97/71/243 99/67/245 100/66/246
s 14
f 66/80/247 76/81/248 83/76/221 72/75/220
f 77/90/249 67/91/250 71/83/228 84/82/227
s 13
f 68/58/251 81/59/252 86/54/214 70/53/213
f 82/68/253 65/69/254 69/61/232 87/60/231
s 14
f 28/85/255 73/86/256 76/81/248 66/80/247
f 77/90/249 75/94/257 29/95/258 67/91/250
s 13
f 30/63/259 78/64/260 81/59/252 68/58/251
f 82/68/253 80/72/261 27/73/262 65/69/254
s 9
f 73/123/102 74/122/101 75/131/107
s 10
f 78/132/115 79/126/114 80/125/120
s 14
f 83/76/221 84/82/227 85/77/222
s 13
f 86/54/214 87/60/231 88/55/215
s off
f 73/86/263 75/94/264 90/96/265 89/92/266
f 75/94/267 77/90/268 91/93/269 90/96/270
f 76/81/271 73/86/272 89/92/273 92/87/274
f 77/90/275 84/82/276 93/89/277 91/93/278
f 84/82/279 83/76/280 94/88/281 93/89/282
f 83/76/283 76/81/284 92/87/285 94/88/286
f 78/64/287 80/72/288 96/74/289 95/70/290
f 80/72/291 82/68/292 97/71/293 96/74/294
f 81/59/295 78/64/296 95/70/297 98/65/298
f 82/68/299 87/60/300 99/67/301 97/71/302
f 87/60/303 86/54/304 100/66/305 99/67/306
f 86/54/307 81/59/308 98/65/309 100/66/310
